<?xml version="1.0" encoding="UTF-8" standalone="no"?>
<svg width="38px" height="38px" viewBox="0 0 38 38" version="1.1" xmlns="http://www.w3.org/2000/svg" xmlns:xlink="http://www.w3.org/1999/xlink">
    <!-- Generator: sketchtool 41 (35326) - http://www.bohemiancoding.com/sketch -->
    <title>7928B4AF-DDF7-4319-A594-323FA8115706</title>
    <desc>Created with sketchtool.</desc>
    <defs>
        <polygon id="path-1" points="18.59395 37.1879 0 37.1879 0 -0.0001 18.59395 -0.0001 37.1879 -0.0001 37.1879 37.1879"></polygon>
    </defs>
    <g id="Desktop-site" stroke="none" stroke-width="1" fill="none" fill-rule="evenodd">
        <g id="Desktop---Article-page---Standard" transform="translate(-440.000000, -1517.000000)">
            <g id="Email" transform="translate(440.000000, 1517.000000)">
                <mask id="mask-2" fill="white">
                    <use xlink:href="#path-1"></use>
                </mask>
                <g id="Clip-2"></g>
                <path d="M18.5939,37.1879 C28.8629,37.1879 37.1879,28.8629 37.1879,18.5939 C37.1879,8.3249 28.8629,-0.0001 18.5939,-0.0001 C8.3249,-0.0001 -0.0001,8.3249 -0.0001,18.5939 C-0.0001,28.8629 8.3249,37.1879 18.5939,37.1879" id="Fill-1" fill="#221F20" mask="url(#mask-2)"></path>
                <path d="M7.7895,25.0619 L14.8875,18.2369 L7.7685,12.1469 L7.7055,12.5459 L7.7055,24.6419 C7.7055,24.7259 7.7335,24.8659 7.7895,25.0619 L7.7895,25.0619 Z M15.7905,17.4179 L16.7355,18.1739 L18.6045,19.7069 L20.4735,18.1739 L21.4185,17.4179 L28.5585,11.3069 C28.4325,11.2649 28.3065,11.2439 28.1805,11.2439 L9.0075,11.2439 C8.8675,11.2439 8.7485,11.2649 8.6505,11.3069 L15.7905,17.4179 Z M9.0075,25.9439 L28.1805,25.9439 C28.3065,25.9439 28.4255,25.9229 28.5375,25.8809 L21.3765,19.0139 L18.6045,21.2609 L15.8325,19.0139 L8.6715,25.8809 C8.7835,25.9229 8.8955,25.9439 9.0075,25.9439 L9.0075,25.9439 Z M29.4195,25.0619 C29.4615,24.9079 29.4825,24.7679 29.4825,24.6419 L29.4825,12.5459 C29.4825,12.4059 29.4615,12.2729 29.4195,12.1469 L22.3215,18.2369 L29.4195,25.0619 Z" id="Fill-4" fill="#FEFEFE" mask="url(#mask-2)"></path>
            </g>
        </g>
    </g>
</svg>