<?xml version="1.0" encoding="UTF-8" standalone="no"?>
<svg width="38px" height="38px" viewBox="0 0 38 38" version="1.1" xmlns="http://www.w3.org/2000/svg" xmlns:xlink="http://www.w3.org/1999/xlink">
    <!-- Generator: sketchtool 40.3 (33839) - http://www.bohemiancoding.com/sketch -->
    <title>6E8F47CE-3D83-464E-92CA-37EFA327C605</title>
    <desc>Created with sketchtool.</desc>
    <defs>
        <polygon id="path-1" points="18.59395 38.1879 0 38.1879 0 0.9999 18.59395 0.9999 37.1879 0.9999 37.1879 38.1879"></polygon>
    </defs>
    <g id="Symbols" stroke="none" stroke-width="1" fill="none" fill-rule="evenodd">
        <g id="Style-1---Facebook-without-image" transform="translate(-14.000000, -72.000000)">
            <g id="Facebook-icon" transform="translate(14.000000, 71.000000)">
                <g id="Group-3" transform="translate(0.000000, 0.187900)"></g>
                <mask id="mask-2" fill="white">
                    <use xlink:href="#path-1"></use>
                </mask>
                <g id="Clip-2"></g>
                <path d="M18.5939,38.1879 C28.8629,38.1879 37.1879,29.8629 37.1879,19.5939 C37.1879,9.3249 28.8629,0.9999 18.5939,0.9999 C8.3249,0.9999 -0.0001,9.3249 -0.0001,19.5939 C-0.0001,29.8629 8.3249,38.1879 18.5939,38.1879" id="Fill-1" fill="#221F20" mask="url(#mask-2)"></path>
                <path d="M20.4053,15.5215 L20.4053,13.4915 C20.4053,13.1835 20.4223,12.9435 20.4563,12.7725 C20.4913,12.6015 20.5593,12.4385 20.6623,12.2845 C20.7653,12.1295 20.9273,12.0185 21.1503,11.9505 C21.3733,11.8815 21.6723,11.8475 22.0493,11.8475 L24.0793,11.8475 L24.0793,7.7875 L20.8163,7.7875 C18.9323,7.7875 17.5793,8.2335 16.7573,9.1235 C15.9343,10.0145 15.5233,11.3335 15.5233,13.0805 L15.5233,15.5215 L13.0823,15.5215 L13.0823,19.5815 L15.5233,19.5815 L15.5233,31.3995 L20.4053,31.3995 L20.4053,19.5815 L23.6683,19.5815 L24.1053,15.5215 L20.4313,15.5215 L20.4053,15.5215 Z" id="Fill-4" fill="#FEFEFE" mask="url(#mask-2)"></path>
            </g>
        </g>
    </g>
</svg>