<?xml version="1.0" encoding="UTF-8" standalone="no"?>
<svg width="39px" height="38px" viewBox="0 0 39 38" version="1.1" xmlns="http://www.w3.org/2000/svg" xmlns:xlink="http://www.w3.org/1999/xlink">
    <!-- Generator: sketchtool 40.3 (33839) - http://www.bohemiancoding.com/sketch -->
    <title>248B4016-2BD9-4716-BAC5-22FF2DE49870</title>
    <desc>Created with sketchtool.</desc>
    <defs></defs>
    <g id="Symbols" stroke="none" stroke-width="1" fill="none" fill-rule="evenodd">
        <g id="Style-4---Facebook-with-image" transform="translate(-345.000000, -227.000000)" fill="#FFFFFF">
            <g id="Group-2" transform="translate(342.000000, 227.000000)">
                <path d="M41.8643,19 C41.8643,8.50677638 33.3575236,0 22.8643,0 C12.3710764,0 3.8643,8.50677638 3.8643,19 C3.8643,29.4932236 12.3710764,38 22.8643,38 C33.3575236,38 41.8643,29.4932236 41.8643,19 M24.7148432,12.7647628 L24.7148432,14.8390879 L24.7414109,14.8390879 L28.4956327,14.8390879 L28.0490908,18.9867161 L24.7148432,18.9867161 L24.7148432,31.063784 L19.7272665,31.063784 L19.7272665,18.9867161 L17.2329673,18.9867161 L17.2329673,14.8390879 L19.7272665,14.8390879 L19.7272665,12.3447886 C19.7272665,10.5596429 20.1472407,9.21184253 20.9871891,8.30138754 C21.8271375,7.39093256 23.2096802,6.93621598 25.1358392,6.93621598 L28.4700868,6.93621598 L28.4700868,11.0838443 L26.3957618,11.0838443 C26.01053,11.0838443 25.7039795,11.1196085 25.4771321,11.1890933 C25.2492629,11.2595999 25.0827038,11.3730236 24.9774548,11.5303861 C24.8732276,11.6877487 24.802721,11.8543078 24.7679786,12.0290416 C24.7322144,12.2047972 24.7148432,12.4490158 24.7148432,12.7647628" id="Page-1"></path>
            </g>
        </g>
    </g>
</svg>