<?xml version="1.0" encoding="UTF-8" standalone="no"?>
<svg width="39px" height="33px" viewBox="0 0 39 33" version="1.1" xmlns="http://www.w3.org/2000/svg" xmlns:xlink="http://www.w3.org/1999/xlink">
    <!-- Generator: sketchtool 40.3 (33839) - http://www.bohemiancoding.com/sketch -->
    <title>E4B53371-FA57-420F-A6B4-27032C09FD04</title>
    <desc>Created with sketchtool.</desc>
    <defs>
        <polygon id="path-1" points="38.6051 0.23 0.4151 0.23 0.4151 33.0001 38.6051 33.0001"></polygon>
    </defs>
    <g id="Desktop-site" stroke="none" stroke-width="1" fill="none" fill-rule="evenodd">
        <g id="Desktop---Article-page---Standard" transform="translate(-881.000000, -3921.000000)">
            <g id="Article-footer" transform="translate(537.000000, 3920.000000)">
                <g id="Group-9" transform="translate(0.000000, 0.770300)">
                    <g id="Group-6" transform="translate(344.000000, 0.000000)">
                        <mask id="mask-2" fill="white">
                            <use xlink:href="#path-1"></use>
                        </mask>
                        <g id="Clip-5"></g>
                        <path d="M0.9111,13.1791 C1.2421,14.1471 1.6231,15.0001 2.0571,15.7381 C2.4891,16.4771 2.9731,17.1761 3.5081,17.8381 C4.0431,18.5011 4.4371,18.9591 4.6921,19.2131 L5.2651,19.7861 L18.5551,32.6181 C18.8091,32.8721 19.1281,33.0001 19.5101,33.0001 C19.8921,33.0001 20.2101,32.8721 20.4651,32.6181 L33.7171,19.8241 C36.9761,16.5651 38.6051,13.3771 38.6051,10.2571 C38.6051,7.1391 37.7011,4.6881 35.8941,2.9061 C34.0861,1.1241 31.5911,0.2321 28.4081,0.2321 C27.5171,0.2071 26.6261,0.3601 25.7351,0.6911 C24.8431,1.0221 23.9911,1.4421 23.1761,1.9511 C22.3611,2.4611 21.6741,2.9441 21.1141,3.4021 C20.5541,3.8601 20.0191,4.3441 19.5101,4.8531 C19.0261,4.3191 18.4911,3.8351 17.9061,3.4021 C17.3201,2.9701 16.6321,2.4861 15.8441,1.9511 C15.0541,1.4161 14.2011,0.9961 13.2851,0.6911 C12.3681,0.3851 11.4771,0.2321 10.6121,0.2321 C7.4281,0.2581 4.9341,1.1491 3.1261,2.9061 C1.3181,4.6621 0.4151,7.1071 0.4151,10.2381 C0.4151,11.2311 0.5801,12.2121 0.9111,13.1791" id="Fill-4" fill="#221F20" mask="url(#mask-2)"></path>
                    </g>
                </g>
            </g>
        </g>
    </g>
</svg>