<?xml version="1.0" encoding="UTF-8" standalone="no"?>
<svg width="38px" height="38px" viewBox="0 0 38 38" version="1.1" xmlns="http://www.w3.org/2000/svg" xmlns:xlink="http://www.w3.org/1999/xlink">
    <!-- Generator: sketchtool 40.3 (33839) - http://www.bohemiancoding.com/sketch -->
    <title>A3AE63B3-CF13-48B1-811D-8FDBEAEDC0DA</title>
    <desc>Created with sketchtool.</desc>
    <defs>
        <polygon id="path-1" points="37.188 18.59395 37.188 37.1879 0 37.1879 0 18.59395 0 0 37.188 0"></polygon>
    </defs>
    <g id="Symbols" stroke="none" stroke-width="1" fill="none" fill-rule="evenodd">
        <g id="Style-2---Instagram-with-image" transform="translate(-251.000000, -82.000000)">
            <g id="Group-2-Copy" transform="translate(20.000000, 82.000000)">
                <g id="Page-1" transform="translate(231.000000, 0.000000)">
                    <mask id="mask-2" fill="white">
                        <use xlink:href="#path-1"></use>
                    </mask>
                    <g id="Clip-2"></g>
                    <path d="M37.188,18.594 C37.188,8.325 28.863,0 18.594,0 C8.325,0 0,8.325 0,18.594 C0,28.863 8.325,37.188 18.594,37.188 C28.863,37.188 37.188,28.863 37.188,18.594 L37.188,18.594 Z M27.594,15.454 L23.031,15.454 C21.943,13.92 20.464,13.152 18.594,13.152 C16.668,13.152 15.189,13.92 14.157,15.454 L9.594,15.454 L9.594,12.399 C9.594,11.617 9.866,10.954 10.41,10.41 C10.954,9.866 11.617,9.594 12.399,9.594 L24.789,9.594 C25.571,9.594 26.234,9.866 26.778,10.41 C27.322,10.954 27.594,11.617 27.594,12.399 L27.594,15.454 Z M16.229,16.208 C16.885,15.566 17.673,15.245 18.594,15.245 C19.515,15.245 20.303,15.566 20.959,16.208 C21.615,16.85 21.943,17.645 21.943,18.594 C21.943,19.515 21.615,20.303 20.959,20.959 C20.303,21.615 19.515,21.943 18.594,21.943 C17.673,21.943 16.885,21.615 16.229,20.959 C15.573,20.303 15.245,19.508 15.245,18.573 C15.245,17.638 15.573,16.85 16.229,16.208 L16.229,16.208 Z M27.594,24.748 C27.594,25.529 27.322,26.199 26.778,26.757 C26.234,27.315 25.571,27.594 24.789,27.594 L12.399,27.594 C11.617,27.594 10.954,27.315 10.41,26.757 C9.866,26.199 9.594,25.529 9.594,24.748 L9.594,17.548 L13.236,17.548 C13.18,17.994 13.152,18.343 13.152,18.594 C13.152,20.073 13.682,21.35 14.743,22.424 C15.803,23.499 17.08,24.036 18.573,24.036 C20.066,24.036 21.35,23.499 22.424,22.424 C23.499,21.35 24.036,20.073 24.036,18.594 C24.036,18.231 23.994,17.882 23.91,17.548 L27.594,17.548 L27.594,24.748 Z M23.617,11.561 L23.617,13.068 C23.617,13.18 23.666,13.292 23.764,13.403 C23.861,13.515 23.98,13.571 24.12,13.571 L25.627,13.571 C25.961,13.571 26.129,13.403 26.129,13.068 L26.129,11.561 C26.129,11.227 25.961,11.059 25.627,11.059 L24.12,11.059 C23.785,11.059 23.617,11.227 23.617,11.561 L23.617,11.561 Z" id="Fill-1" fill="#FFFFFF" mask="url(#mask-2)"></path>
                </g>
            </g>
        </g>
    </g>
</svg>