<?xml version="1.0" encoding="UTF-8" standalone="no"?>
<svg width="38px" height="38px" viewBox="0 0 38 38" version="1.1" xmlns="http://www.w3.org/2000/svg" xmlns:xlink="http://www.w3.org/1999/xlink">
    <!-- Generator: sketchtool 40.3 (33839) - http://www.bohemiancoding.com/sketch -->
    <title>3C6E28F1-5350-41A7-8F04-1BA55320F705</title>
    <desc>Created with sketchtool.</desc>
    <defs>
        <polygon id="path-1" points="18.59395 37.025641 0 37.025641 0 0.791179487 18.59395 0.791179487 37.1879 0.791179487 37.1879 37.025641"></polygon>
    </defs>
    <g id="Symbols" stroke="none" stroke-width="1" fill="none" fill-rule="evenodd">
        <g id="Style-1---Instagram-with-image" transform="translate(-14.000000, -155.000000)">
            <g id="Instagram" transform="translate(14.000000, 155.000000)">
                <g id="Group-3" transform="translate(0.000000, 0.183082)">
                    <mask id="mask-2" fill="white">
                        <use xlink:href="#path-1"></use>
                    </mask>
                    <g id="Clip-2"></g>
                    <path d="M18.5939,37.025641 C28.8629,37.025641 37.1879,28.9141026 37.1879,18.9084103 C37.1879,8.90271795 28.8629,0.791179487 18.5939,0.791179487 C8.3249,0.791179487 -0.0001,8.90271795 -0.0001,18.9084103 C-0.0001,28.9141026 8.3249,37.025641 18.5939,37.025641" id="Fill-1" fill="#221F20" mask="url(#mask-2)"></path>
                </g>
                <path d="M22.4242,22.8234821 C21.3492,23.8709179 20.0662,24.3941487 18.5732,24.3941487 C17.0802,24.3941487 15.8032,23.8709179 14.7432,22.8234821 C13.6822,21.7770205 13.1522,20.5327641 13.1522,19.0916872 C13.1522,18.8471231 13.1802,18.5070718 13.2362,18.0715333 L9.5942,18.0715333 L9.5942,25.0869179 C9.5942,25.8488667 9.8662,26.5007128 10.4102,27.0453795 C10.9542,27.5880974 11.6172,27.8609179 12.3982,27.8609179 L24.7892,27.8609179 C25.5702,27.8609179 26.2332,27.5880974 26.7772,27.0453795 C27.3222,26.5007128 27.5942,25.8488667 27.5942,25.0869179 L27.5942,18.0715333 L23.9102,18.0715333 C23.9942,18.3979436 24.0362,18.7379949 24.0362,19.0916872 C24.0362,20.5327641 23.4982,21.7770205 22.4242,22.8234821 L22.4242,22.8234821 Z M12.3982,10.3224564 C11.6172,10.3224564 10.9542,10.5874821 10.4102,11.1175333 C9.8662,11.6475846 9.5942,12.2935846 9.5942,13.054559 L9.5942,16.0322 L14.1572,16.0322 C15.1892,14.536559 16.6682,13.7892256 18.5942,13.7892256 C20.4632,13.7892256 21.9432,14.536559 23.0312,16.0322 L27.5942,16.0322 L27.5942,13.054559 C27.5942,12.2935846 27.3222,11.6475846 26.7772,11.1175333 C26.2332,10.5874821 25.5702,10.3224564 24.7892,10.3224564 L12.3982,10.3224564 Z M25.6262,14.1974821 L24.1192,14.1974821 C23.9802,14.1974821 23.8612,14.1429179 23.7642,14.0337897 C23.6662,13.9256359 23.6172,13.8165077 23.6172,13.7073795 L23.6172,12.2390205 C23.6172,11.9126103 23.7842,11.7498923 24.1192,11.7498923 L25.6262,11.7498923 C25.9612,11.7498923 26.1292,11.9126103 26.1292,12.2390205 L26.1292,13.7073795 C26.1292,14.0337897 25.9612,14.1974821 25.6262,14.1974821 L25.6262,14.1974821 Z M20.9592,16.7668667 C20.3032,16.1413282 19.5152,15.828559 18.5942,15.828559 C17.6732,15.828559 16.8842,16.1413282 16.2292,16.7668667 C15.5732,17.3924051 15.2452,18.1602 15.2452,19.0712256 C15.2452,19.9822513 15.5732,20.7568667 16.2292,21.3960462 C16.8842,22.0352256 17.6732,22.3548154 18.5942,22.3548154 C19.5152,22.3548154 20.3032,22.0352256 20.9592,21.3960462 C21.6152,20.7568667 21.9432,19.9890718 21.9432,19.0916872 C21.9432,18.1670205 21.6152,17.3924051 20.9592,16.7668667 L20.9592,16.7668667 Z" id="Fill-4" fill="#FEFEFE"></path>
            </g>
        </g>
    </g>
</svg>