<?xml version="1.0" encoding="utf-8"?>
<!-- Generator: Adobe Illustrator 16.0.0, SVG Export Plug-In . SVG Version: 6.00 Build 0)  -->
<!DOCTYPE svg PUBLIC "-//W3C//DTD SVG 1.1//EN" "http://www.w3.org/Graphics/SVG/1.1/DTD/svg11.dtd">
<svg version="1.1" id="Layer_1" xmlns="http://www.w3.org/2000/svg" xmlns:xlink="http://www.w3.org/1999/xlink" x="0px" y="0px"
	 width="65px" height="52px" viewBox="0 0 65 52" enable-background="new 0 0 65 52" xml:space="preserve">
<path fill="#FFFF00" d="M65,3.113C65,4.708,63.708,6,62.113,6H2.887C1.292,6,0,4.708,0,3.113V2.887C0,1.292,1.292,0,2.887,0h59.227
	C63.708,0,65,1.292,65,2.887V3.113z"/>
<path fill="#FFFF00" d="M65,26.113C65,27.707,63.708,29,62.113,29H2.887C1.292,29,0,27.707,0,26.113v-0.227
	C0,24.293,1.292,23,2.887,23h59.227C63.708,23,65,24.293,65,25.887V26.113z"/>
<path fill="#FFFF00" d="M65,49.113C65,50.707,63.708,52,62.113,52H2.887C1.292,52,0,50.707,0,49.113v-0.227
	C0,47.293,1.292,46,2.887,46h59.227C63.708,46,65,47.293,65,48.887V49.113z"/>
</svg>
