<?xml version="1.0" encoding="utf-8"?>
<!-- Generator: Adobe Illustrator 16.0.0, SVG Export Plug-In . SVG Version: 6.00 Build 0)  -->
<!DOCTYPE svg PUBLIC "-//W3C//DTD SVG 1.1//EN" "http://www.w3.org/Graphics/SVG/1.1/DTD/svg11.dtd">
<svg version="1.1" id="Layer_1" xmlns="http://www.w3.org/2000/svg" xmlns:xlink="http://www.w3.org/1999/xlink" x="0px" y="0px"
	 width="30px" height="30px" viewBox="0 0 30 30" enable-background="new 0 0 30 30" xml:space="preserve">
<path fill="#FFFFFF" d="M12.329,24.4c-6.657,0-12.073-5.416-12.073-12.072c0-6.658,5.416-12.074,12.073-12.074
	c6.655,0,12.071,5.416,12.071,12.074C24.4,18.984,18.984,24.4,12.329,24.4z M12.329,2.254c-5.554,0-10.073,4.519-10.073,10.074
	c0,5.554,4.519,10.072,10.073,10.072c5.554,0,10.071-4.52,10.071-10.072C22.4,6.773,17.883,2.254,12.329,2.254z"/>
<path fill="#FCFCFC" d="M27.529,29.732l-8.614-8.615l1.414-1.414l8.614,8.615L27.529,29.732z"/>
</svg>
