<?xml version="1.0" encoding="UTF-8" standalone="no"?>
<svg width="30px" height="34px" viewBox="0 0 30 34" version="1.1" xmlns="http://www.w3.org/2000/svg" xmlns:xlink="http://www.w3.org/1999/xlink">
    <!-- Generator: sketchtool 40.3 (33839) - http://www.bohemiancoding.com/sketch -->
    <title>FAE04278-8434-49B4-8A29-820D2A97148A</title>
    <desc>Created with sketchtool.</desc>
    <defs></defs>
    <g id="Symbols" stroke="none" stroke-width="1" fill="none" fill-rule="evenodd">
        <g id="Style-3---Article-with-image" transform="translate(-345.000000, -828.000000)" fill="#FEFEFE">
            <path d="M368.7675,839.1277 C371.7955,839.1277 374.2905,836.8327 374.2905,834.0477 C374.2905,831.2627 371.7955,828.9677 368.7675,828.9677 C365.7395,828.9677 363.2445,831.2627 363.2445,834.0477 C363.2445,834.5747 363.3265,835.0637 363.4895,835.5527 L354.2025,841.8747 C353.3025,841.0847 352.0755,840.6327 350.7655,840.6327 C347.9435,840.6327 345.6515,842.7407 345.6515,845.3367 C345.6515,847.9337 347.9435,850.0407 350.7655,850.0407 C352.1165,850.0407 353.3435,849.5517 354.2435,848.7987 L363.4895,855.1207 C363.3265,855.6097 363.2445,856.0987 363.2445,856.6257 C363.2445,859.4107 365.7395,861.7057 368.7675,861.7057 C371.7955,861.7057 374.2905,859.4107 374.2905,856.6257 C374.2905,853.8417 371.7955,851.5457 368.7675,851.5457 C367.3355,851.5457 366.0265,852.0727 365.0445,852.9007 L355.7165,846.5037 C355.8395,846.1267 355.8805,845.7507 355.8805,845.3367 C355.8805,844.9227 355.7985,844.5467 355.7165,844.1697 L365.0445,837.7727 C365.9855,838.6007 367.2945,839.1277 368.7675,839.1277 M368.7675,831.6017 C370.2405,831.6017 371.4265,832.6927 371.4265,834.0477 C371.4265,835.4027 370.2405,836.4937 368.7675,836.4937 C367.2945,836.4937 366.1085,835.4027 366.1085,834.0477 C366.1085,832.6927 367.2945,831.6017 368.7675,831.6017 M368.7675,854.1797 C370.2405,854.1797 371.4265,855.2717 371.4265,856.6257 C371.4265,857.9807 370.2405,859.0717 368.7675,859.0717 C367.2945,859.0717 366.1085,857.9807 366.1085,856.6257 C366.1085,855.2717 367.2945,854.1797 368.7675,854.1797" id="Share-icon"></path>
        </g>
    </g>
</svg>