<?xml version="1.0" encoding="UTF-8" standalone="no"?>
<svg width="38px" height="38px" viewBox="0 0 38 38" version="1.1" xmlns="http://www.w3.org/2000/svg" xmlns:xlink="http://www.w3.org/1999/xlink">
    <!-- Generator: sketchtool 41 (35326) - http://www.bohemiancoding.com/sketch -->
    <title>564CC2A3-9768-4D97-923B-94751533B70E</title>
    <desc>Created with sketchtool.</desc>
    <defs>
        <polygon id="path-1" points="18.59395 37.1879 0 37.1879 0 -0.0001 18.59395 -0.0001 37.1879 -0.0001 37.1879 37.1879"></polygon>
    </defs>
    <g id="Desktop-site" stroke="none" stroke-width="1" fill="none" fill-rule="evenodd">
        <g id="Desktop---Article-page---Standard" transform="translate(-440.000000, -1406.000000)">
            <g id="Tumblr-icon" transform="translate(440.000000, 1406.500000)">
                <mask id="mask-2" fill="white">
                    <use xlink:href="#path-1"></use>
                </mask>
                <g id="Clip-2"></g>
                <path d="M18.5939,37.1879 C28.8629,37.1879 37.1879,28.8629 37.1879,18.5939 C37.1879,8.3249 28.8629,-0.0001 18.5939,-0.0001 C8.3249,-0.0001 -0.0001,8.3249 -0.0001,18.5939 C-0.0001,28.8629 8.3249,37.1879 18.5939,37.1879" id="Fill-1" fill="#221F20" mask="url(#mask-2)"></path>
                <path d="M25.094,24.7225 C24.011,25.4345 22.943,25.7905 21.89,25.7905 C21.271,25.7905 20.745,25.6355 20.312,25.3265 C19.971,25.1405 19.724,24.8615 19.569,24.4905 C19.445,24.2115 19.383,23.4225 19.383,22.1225 L19.383,16.6435 L24.398,16.6435 L24.398,13.3015 L19.383,13.3015 L19.383,7.9155 L16.365,7.9155 C16.273,8.9055 16.04,9.8035 15.669,10.6085 C15.298,11.3515 14.818,11.9705 14.23,12.4655 C13.641,12.9605 12.93,13.3475 12.094,13.6265 L12.094,16.6435 L14.415,16.6435 L14.415,24.1185 C14.415,25.1405 14.524,25.8835 14.74,26.3475 C14.895,26.8425 15.251,27.3375 15.808,27.8335 C16.241,28.2355 16.876,28.5915 17.712,28.9015 C18.516,29.1485 19.368,29.2725 20.265,29.2725 C21.101,29.2725 21.89,29.1795 22.633,28.9935 C23.531,28.7775 24.351,28.4675 25.094,28.0655 L25.094,24.7225 Z" id="Fill-4" fill="#FEFEFE" mask="url(#mask-2)"></path>
            </g>
        </g>
    </g>
</svg>