<?xml version="1.0" encoding="UTF-8" standalone="no"?>
<svg width="38px" height="38px" viewBox="0 0 38 38" version="1.1" xmlns="http://www.w3.org/2000/svg" xmlns:xlink="http://www.w3.org/1999/xlink">
    <!-- Generator: sketchtool 40.3 (33839) - http://www.bohemiancoding.com/sketch -->
    <title>5F130291-E2EA-4690-9207-D2F786E163F8</title>
    <desc>Created with sketchtool.</desc>
    <defs>
        <polygon id="path-1" points="37.1879 37.1879 0 37.1879 0 0 37.1879 0"></polygon>
    </defs>
    <g id="Symbols" stroke="none" stroke-width="1" fill="none" fill-rule="evenodd">
        <g id="Style-3---Twitter-with-image" transform="translate(-346.000000, -521.000000)">
            <g id="Page-1" transform="translate(346.000000, 521.000000)">
                <mask id="mask-2" fill="white">
                    <use xlink:href="#path-1"></use>
                </mask>
                <g id="Clip-2"></g>
                <path d="M37.188,18.594 C37.188,8.325 28.863,0 18.594,0 C8.325,0 0,8.325 0,18.594 C0,28.863 8.325,37.188 18.594,37.188 C28.863,37.188 37.188,28.863 37.188,18.594 M27.359,12.193 C28.264,12.089 29.17,11.845 30.076,11.462 L30.05,11.514 C29.405,12.472 28.621,13.282 27.698,13.943 C27.716,14.083 27.725,14.283 27.725,14.544 C27.725,15.816 27.542,17.078 27.176,18.332 C26.81,19.586 26.253,20.797 25.504,21.964 C24.755,23.131 23.858,24.15 22.813,25.02 C21.768,25.891 20.514,26.597 19.051,27.136 C17.588,27.676 16.021,27.937 14.349,27.92 C11.719,27.92 9.307,27.215 7.112,25.804 C7.46,25.839 7.844,25.856 8.262,25.856 C10.456,25.856 12.407,25.186 14.114,23.845 C13.086,23.827 12.171,23.514 11.371,22.904 C10.569,22.295 10.012,21.52 9.699,20.579 C10.012,20.631 10.308,20.657 10.587,20.657 C11.005,20.657 11.414,20.605 11.815,20.501 C10.735,20.275 9.829,19.735 9.098,18.881 C8.366,18.028 8.009,17.026 8.027,15.877 L8.027,15.824 C8.688,16.19 9.394,16.391 10.143,16.425 C9.498,15.99 8.984,15.433 8.602,14.753 C8.218,14.074 8.027,13.316 8.027,12.48 C8.027,11.644 8.244,10.861 8.68,10.129 C9.864,11.575 11.292,12.733 12.964,13.604 C14.636,14.475 16.439,14.962 18.372,15.067 C18.302,14.701 18.267,14.344 18.267,13.996 C18.267,12.689 18.729,11.575 19.652,10.652 C20.575,9.729 21.69,9.267 22.996,9.267 C24.355,9.267 25.504,9.763 26.444,10.756 C27.507,10.547 28.499,10.164 29.423,9.607 C29.057,10.722 28.369,11.584 27.359,12.193" id="Fill-1" fill="#FFFFFF" mask="url(#mask-2)"></path>
            </g>
        </g>
    </g>
</svg>