<?xml version="1.0" encoding="UTF-8" standalone="no"?>
<svg width="38px" height="38px" viewBox="0 0 38 38" version="1.1" xmlns="http://www.w3.org/2000/svg" xmlns:xlink="http://www.w3.org/1999/xlink">
    <!-- Generator: sketchtool 40.3 (33839) - http://www.bohemiancoding.com/sketch -->
    <title>3BF6C903-567D-4DBE-9F99-3278292FFABE</title>
    <desc>Created with sketchtool.</desc>
    <defs>
        <polygon id="path-1" points="18.59395 37.1879 0 37.1879 0 -0.0001 18.59395 -0.0001 37.1879 -0.0001 37.1879 37.1879"></polygon>
    </defs>
    <g id="Symbols" stroke="none" stroke-width="1" fill="none" fill-rule="evenodd">
        <g id="Style-1---Twitter-with-image" transform="translate(-14.000000, -155.000000)">
            <g id="Group-4" transform="translate(0.000000, 1.000000)">
                <g id="Twitter-icon" transform="translate(14.000000, 154.000000)">
                    <mask id="mask-2" fill="white">
                        <use xlink:href="#path-1"></use>
                    </mask>
                    <g id="Clip-2"></g>
                    <path d="M18.5939,37.1879 C28.8629,37.1879 37.1879,28.8629 37.1879,18.5939 C37.1879,8.3249 28.8629,-0.0001 18.5939,-0.0001 C8.3249,-0.0001 -0.0001,8.3249 -0.0001,18.5939 C-0.0001,28.8629 8.3249,37.1879 18.5939,37.1879" id="Fill-1" fill="#221F20" mask="url(#mask-2)"></path>
                    <path d="M30.0756,11.4616 C29.1696,11.8446 28.2636,12.0886 27.3586,12.1926 C28.3686,11.5836 29.0566,10.7216 29.4226,9.6066 C28.4996,10.1646 27.5066,10.5476 26.4446,10.7566 C25.5036,9.7636 24.3546,9.2676 22.9956,9.2676 C21.6896,9.2676 20.5746,9.7286 19.6516,10.6516 C18.7286,11.5746 18.2676,12.6896 18.2676,13.9956 C18.2676,14.3446 18.3016,14.7006 18.3716,15.0666 C16.4386,14.9626 14.6356,14.4746 12.9636,13.6036 C11.2926,12.7336 9.8636,11.5746 8.6796,10.1296 C8.2446,10.8606 8.0266,11.6446 8.0266,12.4806 C8.0266,13.3166 8.2176,14.0736 8.6016,14.7536 C8.9846,15.4326 9.4986,15.9906 10.1426,16.4256 C9.3936,16.3906 8.6886,16.1906 8.0266,15.8246 L8.0266,15.8766 C8.0086,17.0256 8.3666,18.0276 9.0976,18.8806 C9.8296,19.7346 10.7346,20.2746 11.8146,20.5006 C11.4136,20.6056 11.0046,20.6576 10.5866,20.6576 C10.3076,20.6576 10.0116,20.6316 9.6986,20.5786 C10.0116,21.5196 10.5696,22.2946 11.3706,22.9046 C12.1716,23.5136 13.0856,23.8276 14.1136,23.8446 C12.4066,25.1856 10.4566,25.8566 8.2616,25.8566 C7.8436,25.8566 7.4606,25.8386 7.1126,25.8036 C9.3066,27.2146 11.7186,27.9196 14.3486,27.9196 C16.0206,27.9376 17.5886,27.6766 19.0506,27.1366 C20.5136,26.5966 21.7676,25.8916 22.8126,25.0206 C23.8576,24.1496 24.7546,23.1306 25.5036,21.9636 C26.2526,20.7966 26.8096,19.5866 27.1756,18.3326 C27.5416,17.0786 27.7246,15.8156 27.7246,14.5446 C27.7246,14.2826 27.7156,14.0826 27.6986,13.9436 C28.6216,13.2816 29.4046,12.4716 30.0496,11.5136 L30.0756,11.4616 Z" id="Fill-4" fill="#FEFEFE" mask="url(#mask-2)"></path>
                </g>
            </g>
        </g>
    </g>
</svg>