<?xml version="1.0" encoding="UTF-8" standalone="no"?>
<svg width="38px" height="38px" viewBox="0 0 38 38" version="1.1" xmlns="http://www.w3.org/2000/svg" xmlns:xlink="http://www.w3.org/1999/xlink">
    <!-- Generator: sketchtool 40.3 (33839) - http://www.bohemiancoding.com/sketch -->
    <title>A127C90D-3B22-453A-B934-051CADDC1EBE</title>
    <desc>Created with sketchtool.</desc>
    <defs>
        <polygon id="path-1" points="18.59395 37.025641 0 37.025641 0 0.791179487 18.59395 0.791179487 37.1879 0.791179487 37.1879 37.025641"></polygon>
    </defs>
    <g id="Symbols" stroke="none" stroke-width="1" fill="none" fill-rule="evenodd">
        <g id="Style-1---Vimeo" transform="translate(-13.000000, -156.000000)">
            <g id="Page-1" transform="translate(13.000000, 156.000000)">
                <g id="Group-3" transform="translate(0.000000, 0.183082)">
                    <mask id="mask-2" fill="white">
                        <use xlink:href="#path-1"></use>
                    </mask>
                    <g id="Clip-2"></g>
                    <path d="M18.5939,37.025641 C28.8629,37.025641 37.1879,28.9141026 37.1879,18.9084103 C37.1879,8.90271795 28.8629,0.791179487 18.5939,0.791179487 C8.3249,0.791179487 -0.0001,8.90271795 -0.0001,18.9084103 C-0.0001,28.9141026 8.3249,37.025641 18.5939,37.025641" id="Fill-1" fill="#221F20" mask="url(#mask-2)"></path>
                </g>
                <path d="M26.4071,11.6440769 C25.3541,11.0438718 24.1361,11.0964872 22.7501,11.8009487 C21.1781,12.6096667 20.2461,13.8363846 19.9531,15.4811026 C20.9651,14.8808974 21.7111,14.8935641 22.1911,15.5200769 C22.6701,16.1465897 22.6301,16.9553077 22.0711,17.9472051 C20.9251,20.1132051 20.0861,21.1966923 19.5531,21.1966923 C19.4201,21.1966923 19.3001,21.1245897 19.1931,20.981359 C19.0871,20.8371538 18.9671,20.5828462 18.8341,20.2174615 C18.7001,19.8520769 18.5871,19.5003333 18.4941,19.1602821 L18.0741,17.5944872 C17.9941,17.2817179 17.9081,16.8442308 17.8151,16.283 L17.5751,14.814641 C17.5081,14.3976154 17.4081,13.940641 17.2751,13.4446923 C17.1421,12.9487436 16.9881,12.5580256 16.8151,12.2705897 C16.6421,11.9831538 16.4021,11.7551538 16.0961,11.5856154 C15.7891,11.4160769 15.4371,11.3702821 15.0371,11.4482308 C14.3441,11.5787949 13.5181,12.0162821 12.5591,12.7597179 C11.6001,13.5031538 10.9341,14.0848462 10.5611,14.5018718 L9.6421,15.5200769 L10.3611,16.4983333 L10.7611,16.2245385 C11.0541,16.0423333 11.3471,15.9049487 11.6401,15.813359 C11.9331,15.7217692 12.1861,15.7548974 12.3991,15.9107949 C12.5591,16.1202821 13.0521,17.575 13.8781,20.2759231 C14.7041,22.9778205 15.2231,24.5436154 15.4371,24.9742821 C15.6501,25.4049487 15.9361,25.796641 16.2961,26.1483846 C16.6561,26.5011026 17.0951,26.7485897 17.6151,26.8927949 C18.1341,27.0360256 18.6741,26.9249487 19.2331,26.5595641 C20.6451,25.6202821 22.2771,24.0739744 24.1291,21.920641 C25.9811,19.7673077 27.1201,17.4775641 27.5461,15.0504359 C27.8391,13.3794103 27.4591,12.2442821 26.4071,11.6440769" id="Fill-4" fill="#FEFEFE"></path>
            </g>
        </g>
    </g>
</svg>