<?xml version="1.0" encoding="UTF-8" standalone="no"?>
<svg width="38px" height="38px" viewBox="0 0 38 38" version="1.1" xmlns="http://www.w3.org/2000/svg" xmlns:xlink="http://www.w3.org/1999/xlink">
    <!-- Generator: sketchtool 40.3 (33839) - http://www.bohemiancoding.com/sketch -->
    <title>0D309F4D-5FBD-4017-9D81-5D916345D619</title>
    <desc>Created with sketchtool.</desc>
    <defs>
        <polygon id="path-1" points="37.1879 37.1879 0 37.1879 0 0 37.1879 0"></polygon>
    </defs>
    <g id="Symbols" stroke="none" stroke-width="1" fill="none" fill-rule="evenodd">
        <g id="Style-2---Vimeo" transform="translate(-251.000000, -42.000000)">
            <g id="Page-1" transform="translate(251.000000, 42.000000)">
                <mask id="mask-2" fill="white">
                    <use xlink:href="#path-1"></use>
                </mask>
                <g id="Clip-2"></g>
                <path d="M37.1879,18.594 C37.1879,8.325 28.8629,0 18.5939,0 C8.3249,0 -9.99999993e-05,8.325 -9.99999993e-05,18.594 C-9.99999993e-05,28.863 8.3249,37.188 18.5939,37.188 C28.8629,37.188 37.1879,28.863 37.1879,18.594 M27.5459,14.446 C27.1199,16.937 25.9809,19.288 24.1289,21.497 C22.2769,23.707 20.6449,25.294 19.2329,26.259 C18.6739,26.633 18.1339,26.747 17.6149,26.6 C17.0949,26.453 16.6559,26.198 16.2959,25.837 C15.9359,25.475 15.6499,25.073 15.4369,24.631 C15.2239,24.189 14.7039,22.582 13.8779,19.81 C13.0519,17.038 12.5589,15.544 12.3989,15.33 C12.1859,15.169 11.9329,15.136 11.6399,15.23 C11.3469,15.323 11.0539,15.464 10.7609,15.651 L10.3609,15.933 L9.6419,14.928 L10.5609,13.884 C10.9339,13.455 11.5999,12.859 12.5589,12.096 C13.5189,11.332 14.3439,10.884 15.0369,10.75 C15.4369,10.669 15.7899,10.716 16.0959,10.89 C16.4019,11.064 16.6419,11.299 16.8159,11.593 C16.9889,11.888 17.1419,12.29 17.2749,12.799 C17.4079,13.308 17.5079,13.777 17.5749,14.205 L17.8149,15.712 C17.9079,16.288 17.9949,16.736 18.0739,17.058 L18.4939,18.665 C18.5869,19.013 18.6999,19.375 18.8339,19.75 C18.9669,20.125 19.0869,20.386 19.1929,20.533 C19.2999,20.681 19.4199,20.754 19.5529,20.754 C20.0859,20.754 20.9249,19.643 22.0709,17.419 C22.6309,16.402 22.6699,15.571 22.1909,14.928 C21.7109,14.285 20.9649,14.272 19.9529,14.888 C20.2459,13.201 21.1779,11.942 22.7499,11.111 C24.1359,10.388 25.3549,10.335 26.4069,10.951 C27.4589,11.567 27.8389,12.732 27.5459,14.446" id="Fill-1" fill="#FFFFFF" mask="url(#mask-2)"></path>
            </g>
        </g>
    </g>
</svg>