<?xml version="1.0" encoding="UTF-8" standalone="no"?>
<svg width="38px" height="38px" viewBox="0 0 38 38" version="1.1" xmlns="http://www.w3.org/2000/svg" xmlns:xlink="http://www.w3.org/1999/xlink">
    <!-- Generator: sketchtool 40.3 (33839) - http://www.bohemiancoding.com/sketch -->
    <title>50184D0F-044F-46DF-8271-3CE39AEC0E90</title>
    <desc>Created with sketchtool.</desc>
    <defs></defs>
    <g id="Symbols" stroke="none" stroke-width="1" fill="none" fill-rule="evenodd">
        <g id="Style-1---YouTube" transform="translate(-13.000000, -156.000000)">
            <g id="Card-2">
                <g id="Group" transform="translate(13.000000, 156.000000)">
                    <path d="M18.5939,37.1879 C28.8629,37.1879 37.1879,28.8629 37.1879,18.5939 C37.1879,8.3249 28.8629,-0.0001 18.5939,-0.0001 C8.3249,-0.0001 -9.99999993e-05,8.3249 -9.99999993e-05,18.5939 C-9.99999993e-05,28.8629 8.3249,37.1879 18.5939,37.1879" id="Fill-1" fill="#221F20"></path>
                    <path d="M29.75,20.4114 L29.75,16.7404 C29.725,16.3384 29.719,15.9344 29.67,15.5354 C29.576,14.7774 29.508,14.0104 29.34,13.2664 C29.063,12.0424 28.043,11.2344 26.789,11.1104 C25.109,10.9434 23.427,10.8614 21.74,10.8504 C19.746,10.8374 17.75,10.8114 15.756,10.8404 C14.262,10.8624 12.768,10.9574 11.274,11.0334 C10.849,11.0554 10.419,11.0924 10.003,11.1804 C8.982,11.3954 8.289,12.0194 7.941,12.9964 C7.681,13.7274 7.609,14.5004 7.545,15.2694 C7.509,15.7124 7.493,16.1584 7.466,16.6024 C7.462,16.6604 7.448,16.7184 7.438,16.7764 L7.438,20.4114 C7.46,20.7604 7.466,21.1104 7.507,21.4564 C7.598,22.2274 7.674,23.0034 7.816,23.7654 C8.058,25.0694 9.087,25.9464 10.403,26.0774 C12.082,26.2434 13.765,26.3254 15.451,26.3364 C17.446,26.3504 19.441,26.3774 21.435,26.3464 C22.977,26.3214 24.518,26.2204 26.059,26.1414 C26.437,26.1224 26.819,26.0864 27.188,26.0074 C28.201,25.7904 28.891,25.1754 29.244,24.2074 C29.506,23.4884 29.575,22.7274 29.64,21.9704 C29.679,21.5214 29.694,21.0704 29.722,20.6204 C29.726,20.5504 29.74,20.4814 29.75,20.4114 M22.811,18.3794 C20.423,19.6174 18.084,20.8294 15.721,22.0544 L15.721,14.6794 C18.083,15.9124 20.423,17.1334 22.811,18.3794" id="Fill-4" fill="#FEFEFE"></path>
                </g>
            </g>
        </g>
    </g>
</svg>