<?xml version="1.0" encoding="UTF-8" standalone="no"?>
<svg width="38px" height="38px" viewBox="0 0 38 38" version="1.1" xmlns="http://www.w3.org/2000/svg" xmlns:xlink="http://www.w3.org/1999/xlink">
    <!-- Generator: sketchtool 40.3 (33839) - http://www.bohemiancoding.com/sketch -->
    <title>04391037-AC7C-44F7-8544-175275ACEBB6</title>
    <desc>Created with sketchtool.</desc>
    <defs>
        <polygon id="path-1" points="18.59395 37.1879 0 37.1879 0 -0.0001 18.59395 -0.0001 37.1879 -0.0001 37.1879 37.1879"></polygon>
    </defs>
    <g id="Symbols" stroke="none" stroke-width="1" fill="none" fill-rule="evenodd">
        <g id="Style-2---YouTube" transform="translate(-251.000000, -42.000000)">
            <g id="Page-1" transform="translate(251.000000, 42.000000)">
                <mask id="mask-2" fill="white">
                    <use xlink:href="#path-1"></use>
                </mask>
                <g id="Clip-2"></g>
                <path d="M37.1879,18.5939 C37.1879,8.3249 28.8629,-0.0001 18.5939,-0.0001 C8.3249,-0.0001 -9.99999993e-05,8.3249 -9.99999993e-05,18.5939 C-9.99999993e-05,28.8629 8.3249,37.1879 18.5939,37.1879 C28.8629,37.1879 37.1879,28.8629 37.1879,18.5939 L37.1879,18.5939 Z M29.7499,20.4119 C29.7399,20.4809 29.7259,20.5499 29.7219,20.6199 C29.6939,21.0699 29.6799,21.5219 29.6409,21.9709 C29.5749,22.7279 29.5059,23.4889 29.2439,24.2079 C28.8909,25.1759 28.2009,25.7909 27.1879,26.0079 C26.8189,26.0869 26.4369,26.1229 26.0589,26.1419 C24.5179,26.2209 22.9769,26.3219 21.4349,26.3459 C19.4409,26.3779 17.4459,26.3499 15.4509,26.3369 C13.7649,26.3249 12.0819,26.2439 10.4029,26.0769 C9.0869,25.9469 8.0589,25.0689 7.8159,23.7659 C7.6739,23.0029 7.5979,22.2279 7.5069,21.4569 C7.4659,21.1109 7.4599,20.7599 7.4379,20.4119 L7.4379,16.7759 C7.4479,16.7179 7.4619,16.6609 7.4659,16.6019 C7.4929,16.1579 7.5089,15.7129 7.5449,15.2699 C7.6089,14.4999 7.6809,13.7279 7.9409,12.9959 C8.2889,12.0189 8.9819,11.3959 10.0029,11.1809 C10.4189,11.0929 10.8489,11.0549 11.2739,11.0329 C12.7679,10.9569 14.2619,10.8629 15.7559,10.8409 C17.7509,10.8109 19.7459,10.8369 21.7399,10.8499 C23.4269,10.8619 25.1089,10.9439 26.7889,11.1099 C28.0429,11.2349 29.0629,12.0419 29.3399,13.2669 C29.5079,14.0099 29.5759,14.7769 29.6699,15.5359 C29.7189,15.9349 29.7249,16.3389 29.7499,16.7399 L29.7499,20.4119 Z M15.7209,22.0549 C18.0839,20.8299 20.4229,19.6169 22.8109,18.3789 C20.4229,17.1329 18.0829,15.9129 15.7209,14.6799 L15.7209,22.0549 Z" id="Fill-1" fill="#FFFFFF" mask="url(#mask-2)"></path>
            </g>
        </g>
    </g>
</svg>