<?xml version="1.0" encoding="UTF-8" standalone="no"?>
<svg width="217px" height="76px" viewBox="0 0 217 76" version="1.1" xmlns="http://www.w3.org/2000/svg" xmlns:xlink="http://www.w3.org/1999/xlink">
    <!-- Generator: Sketch 41.2 (35397) - http://www.bohemiancoding.com/sketch -->
    <title>Group 2</title>
    <desc>Created with Sketch.</desc>
    <defs></defs>
    <g id="Symbols" stroke="none" stroke-width="1" fill="none" fill-rule="evenodd">
        <g id="Header-and-menu" transform="translate(-116.000000, -9.000000)">
            <g id="Group-2" transform="translate(116.000000, 9.000000)">
                <text id="DIRECT-FROM-THE-UTS" font-family="AcuminPro-Bold, Acumin Pro" font-size="12" font-weight="bold" fill="#FEFEFE">
                    <tspan x="0" y="60.2659757">DI</tspan>
                    <tspan x="12.588" y="60.2659757" letter-spacing="0.06">R</tspan>
                    <tspan x="20.652" y="60.2659757" letter-spacing="0.096">E</tspan>
                    <tspan x="28.26" y="60.2659757">CT </tspan>
                    <tspan x="46.764" y="60.2659757" letter-spacing="0.0468">F</tspan>
                    <tspan x="53.9148" y="60.2659757" letter-spacing="0.048">R</tspan>
                    <tspan x="61.9548" y="60.2659757">OM THE </tspan>
                    <tspan x="110.9268" y="60.2659757" letter-spacing="0.1908">U</tspan>
                    <tspan x="120.0096" y="60.2659757" letter-spacing="0.156">T</tspan>
                    <tspan x="127.3776" y="60.2659757">S</tspan>
                    <tspan x="0" y="74.2659757">JOURNALISM LAB </tspan>
                </text>
                <path d="M0,38.0685 L48.75,38.0685" id="Stroke-1" stroke="#FEFEFE" stroke-width="6"></path>
                <path d="M12.196,18.0178 C15.934,18.0178 16.564,19.3618 16.564,21.8818 L16.564,22.6378 C16.564,25.5778 16.69,27.6778 17.152,28.9378 L25.216,28.9378 C24.922,27.6778 24.838,25.3678 24.838,23.5618 L24.838,22.3438 C24.838,17.4298 22.906,15.4978 21.1,14.8678 C23.074,14.0698 25.426,12.0118 25.426,8.0218 C25.426,3.6538 22.15,-0.0002 15.304,-0.0002 L0.982,-0.0002 L0.982,28.9378 L9.214,28.9378 L9.214,18.0178 L12.196,18.0178 Z M9.214,5.9218 L13.162,5.9218 C15.766,5.9218 16.984,7.0558 16.984,8.9878 C16.984,10.9198 15.976,12.0958 13.162,12.0958 L9.214,12.0958 L9.214,5.9218 Z M50.626,19.5298 C50.71,18.9418 50.71,18.3958 50.71,17.6398 C50.71,12.1798 48.106,6.3838 39.58,6.3838 C31.558,6.3838 28.072,11.4658 28.072,18.1018 C28.072,23.8558 31.096,29.4838 39.412,29.4838 C47.224,29.4838 49.702,24.9478 50.5,22.0078 L42.478,22.0078 C42.058,23.1838 41.512,23.9818 39.58,23.9818 C37.144,23.9818 36.304,21.7558 36.304,19.5298 L50.626,19.5298 Z M36.388,15.2878 C36.514,13.1038 37.354,11.4658 39.538,11.4658 C41.89,11.4658 42.478,13.2298 42.52,15.2878 L36.388,15.2878 Z M62.554,41.0018 L62.554,27.3838 C63.436,28.5178 64.948,29.4838 67.678,29.4838 C72.76,29.4838 77.338,25.5358 77.338,17.3878 C77.338,10.2058 73.348,6.3838 68.728,6.3838 C65.2,6.3838 63.436,8.0638 62.554,9.3658 C62.554,8.7358 62.428,7.4758 62.344,6.9298 L54.364,6.9298 C54.406,8.4838 54.406,10.8778 54.406,12.8518 L54.406,41.0018 L62.554,41.0018 Z M69.022,17.7238 C69.022,21.9658 67.93,23.8138 65.494,23.8138 C63.1,23.8138 62.302,21.8398 62.302,18.0178 C62.302,13.9018 63.1,12.1378 65.662,12.1378 C67.762,12.1378 69.022,13.6498 69.022,17.7238 L69.022,17.7238 Z M92.121,6.3838 C84.225,6.3838 80.193,11.3398 80.193,17.9758 C80.193,24.3598 84.057,29.4838 91.869,29.4838 C99.429,29.4838 103.671,24.7798 103.671,17.8918 C103.671,11.2138 99.387,6.3838 92.121,6.3838 L92.121,6.3838 Z M91.953,11.9278 C94.179,11.9278 95.313,13.4818 95.313,18.0178 C95.313,22.0918 94.137,23.9818 91.995,23.9818 C89.769,23.9818 88.551,22.1338 88.551,17.9338 C88.551,13.3978 89.895,11.9278 91.953,11.9278 L91.953,11.9278 Z M107.325,28.9378 L115.515,28.9378 L115.515,19.9078 C115.515,14.7418 117.615,13.6498 122.235,13.8598 L122.235,6.3838 C118.455,6.4258 116.313,8.3998 115.473,10.4998 C115.473,9.5338 115.389,7.6018 115.263,6.9298 L107.283,6.9298 C107.325,8.8618 107.325,11.1298 107.325,13.2298 L107.325,28.9378 Z M124.544,12.4318 L127.652,12.4318 L127.652,22.5958 C127.652,26.7538 129.122,29.2738 134.33,29.2738 C135.674,29.2738 137.816,29.1898 139.118,28.7698 L139.118,23.7298 C138.656,23.7718 138.278,23.7718 137.942,23.7718 C136.22,23.7718 135.8,23.2678 135.8,21.8818 L135.8,12.4318 L139.664,12.4318 L139.664,6.9298 L135.8,6.9298 L135.8,1.2178 L127.694,1.2178 L127.694,6.9298 L124.544,6.9298 L124.544,12.4318 Z M163.184,14.4898 C163.184,9.1978 160.244,6.4258 153.02,6.3838 C145.208,6.3418 143.024,9.9538 142.73,13.6498 L150.29,13.6498 C150.5,12.2218 150.962,11.3818 152.81,11.3818 C154.784,11.3818 155.288,12.3898 155.288,13.8178 L155.288,15.0358 L152.6,15.0358 C145.88,15.0358 141.722,17.2618 141.722,22.4698 C141.722,26.3758 144.41,29.4838 149.324,29.4838 C152.894,29.4838 154.49,28.2658 155.54,26.9218 C155.582,27.4258 155.708,28.4758 155.876,28.9378 L163.436,28.9378 C163.31,28.1818 163.184,24.9058 163.184,22.4278 L163.184,14.4898 Z M155.288,19.8238 C155.288,22.2178 154.91,24.1078 152.138,24.1078 C150.5,24.1078 149.744,23.0578 149.744,21.7978 C149.744,20.1598 150.668,19.1518 153.482,19.1518 L155.288,19.1518 L155.288,19.8238 Z M189.811,13.2298 C189.811,10.6678 189.853,8.6098 189.895,6.9298 L181.957,6.9298 C181.915,7.3078 181.789,8.3998 181.747,8.9458 C181.411,7.9378 179.857,6.3838 176.329,6.3838 C170.827,6.3838 166.879,11.0878 166.879,17.9338 C166.879,23.7718 170.029,28.4758 175.825,28.4758 C178.933,28.4758 180.613,27.3838 181.747,25.7038 L181.747,26.8798 C181.747,30.4918 181.159,32.1718 178.303,32.1718 C176.455,32.1718 175.741,31.3738 175.447,30.1978 L167.383,30.1978 C167.593,32.6758 169.147,37.4218 178.009,37.4218 C187.291,37.4218 189.811,32.8438 189.811,25.6618 L189.811,13.2298 Z M175.279,17.5558 C175.279,13.5238 176.833,12.0118 178.723,12.0118 C181.621,12.0118 181.999,14.0278 181.999,17.4718 C181.999,20.7478 181.369,22.8058 178.597,22.8058 C176.539,22.8058 175.279,20.8738 175.279,17.5558 L175.279,17.5558 Z M215.977,19.5298 C216.061,18.9418 216.061,18.3958 216.061,17.6398 C216.061,12.1798 213.457,6.3838 204.931,6.3838 C196.909,6.3838 193.423,11.4658 193.423,18.1018 C193.423,23.8558 196.447,29.4838 204.763,29.4838 C212.575,29.4838 215.053,24.9478 215.851,22.0078 L207.829,22.0078 C207.409,23.1838 206.863,23.9818 204.931,23.9818 C202.495,23.9818 201.655,21.7558 201.655,19.5298 L215.977,19.5298 Z M201.739,15.2878 C201.865,13.1038 202.705,11.4658 204.889,11.4658 C207.241,11.4658 207.829,13.2298 207.871,15.2878 L201.739,15.2878 Z" id="Fill-3" fill="#FEFEFE"></path>
            </g>
        </g>
    </g>
</svg>