<?xml version="1.0" encoding="UTF-8" standalone="no"?>
<svg width="250px" height="38px" viewBox="0 0 250 38" version="1.1" xmlns="http://www.w3.org/2000/svg" xmlns:xlink="http://www.w3.org/1999/xlink">
    <!-- Generator: sketchtool 42 (36781) - http://www.bohemiancoding.com/sketch -->
    <title>72FFB375-5C25-469D-B12D-AF929EB12AD6</title>
    <desc>Created with sketchtool.</desc>
    <defs></defs>
    <g id="Symbols" stroke="none" stroke-width="1" fill="none" fill-rule="evenodd">
        <g id="Header-and-menu" transform="translate(-102.000000, -22.000000)" fill="#FFFFFF">
            <g id="Group-3" transform="translate(102.000000, 22.000000)">
                <path d="M166.428981,22.5233633 L166.428981,12.8518531 C166.428981,8.84042449 166.428981,5.34034286 166.267044,2.60434286 L166.333018,2.60434286 C167.859433,5.08760816 175.782395,17.5274449 178.997162,22.5233633 L181.981018,22.5233633 L181.981018,0.31797551 L179.743876,0.31797551 L179.743876,9.73087347 C179.743876,13.3632 179.713887,16.7369143 179.908812,19.790302 L179.875825,19.790302 C178.511348,17.3716898 170.780313,5.59601633 167.37062,0.31797551 L164.158852,0.31797551 L164.158852,22.5233633 L166.428981,22.5233633 Z M200.178273,9.83079184 L188.746657,9.83079184 L188.746657,2.31928163 L200.730061,2.31928163 L200.730061,0.31797551 L186.446539,0.31797551 L186.446539,22.5233633 L200.954975,22.5233633 L201.28185,20.5220571 L188.746657,20.5220571 L188.746657,11.832098 L200.178273,11.832098 L200.178273,9.83079184 Z M212.323616,22.5233633 C213.880019,17.1777306 217.094786,6.36009796 217.745537,3.27438367 L217.775525,3.27438367 C218.23135,5.49903673 221.476106,17.3364245 222.906558,22.5233633 L225.470575,22.5233633 L232.256972,0.31797551 L229.950857,0.31797551 C228.523404,5.28156735 225.014749,16.4489143 224.301023,19.9196082 L224.268036,19.9196082 C223.848197,17.7860571 220.438504,5.53724082 219.011051,0.31797551 L216.638961,0.31797551 C215.115545,6.11030204 211.639878,17.5627102 211.154064,19.9813224 L211.121077,19.9813224 C210.635263,17.4040163 207.648409,6.52173061 206.023032,0.31797551 L203.590964,0.31797551 L209.789588,22.5233633 L212.323616,22.5233633 Z M233.434137,16.4489143 C233.889963,19.6316082 236.127105,22.7790367 241.809926,22.7790367 C247.201858,22.7790367 249.762876,19.9813224 249.762876,16.5752816 C249.762876,13.8069551 248.725274,11.3266286 242.295739,9.76613878 C238.205308,8.7787102 236.807844,7.88826122 236.807844,5.62834286 C236.807844,3.30377143 238.496196,1.93724082 241.549026,1.93724082 C244.991706,1.93724082 246.422157,3.62409796 246.907971,5.81936327 L249.277062,5.81936327 C248.986174,3.0187102 246.812008,0.000587755102 241.647988,0.000587755102 C236.678893,0.000587755102 234.375776,2.70132245 234.375776,5.78703673 C234.375776,8.96973061 236.355017,10.5919347 241.387088,11.8350367 C246.194244,12.9811592 247.297821,14.3800163 247.297821,16.766302 C247.297821,19.0585469 245.804394,20.904098 241.938876,20.904098 C238.400233,20.904098 236.483968,19.2818939 235.836216,16.4489143 L233.434137,16.4489143 Z" id="Fill-1"></path>
                <path d="M14.736949,15.3036735 C14.4460605,16.5438367 13.7293354,18.4217143 11.0993439,18.4217143 C7.65966284,18.4217143 6.75101127,14.9862857 6.75101127,11.5155918 C6.75101127,7.66579592 7.85458809,4.70644898 11.036368,4.70644898 C13.4714343,4.70644898 14.3800858,6.16995918 14.7039616,7.7275102 L21.1994709,7.7275102 C20.7436457,3.94236735 17.756791,0.18955102 11.1983059,0.18955102 C3.50325665,0.18955102 0.000599770013,5.5322449 0.000599770013,11.7389388 C0.000599770013,18.1043265 3.536244,22.9356735 10.8744301,22.9356735 C17.0100773,22.9356735 20.4197699,19.8852245 21.2624467,15.3036735 L14.736949,15.3036735 Z M40.8749262,8.90889796 L30.6788359,8.90889796 L30.6788359,5.37355102 L41.297764,5.37355102 L41.297764,0.603918367 L24.3842497,0.603918367 L24.3842497,22.5242449 L41.3277525,22.5242449 L42.0744662,17.7546122 L30.6788359,17.7546122 L30.6788359,13.6462041 L40.8749262,13.6462041 L40.8749262,8.90889796 Z M51.1010049,22.5242449 L51.1010049,17.5929796 C51.1010049,13.7431837 51.0680175,9.51134694 50.8760911,7.44538776 L50.939067,7.44538776 C52.0126553,10.3400816 56.0730983,18.5480816 57.9563762,22.5242449 L65.420514,22.5242449 L65.420514,0.603918367 L59.4498035,0.603918367 L59.4498035,5.2795102 C59.4498035,8.77959184 59.5157782,12.6293878 59.7736793,14.9216327 L59.6447287,14.9216327 C58.7030898,12.2150204 55.2933973,5.53518367 52.9542942,0.603918367 L45.1003059,0.603918367 L45.1003059,22.5242449 L51.1010049,22.5242449 Z M74.7439388,22.5242449 L81.2964262,22.5242449 L81.2964262,5.37355102 L87.6299976,5.37355102 L87.6299976,0.603918367 L68.3473916,0.603918367 L68.3473916,5.37355102 L74.7439388,5.37355102 L74.7439388,22.5242449 Z M98.962652,14.2515918 C101.853543,14.2515918 102.339357,15.2684082 102.339357,17.1786122 L102.339357,17.7516735 C102.339357,19.9792653 102.438319,21.5691429 102.795182,22.5242449 L109.026793,22.5242449 C108.79888,21.5691429 108.732905,19.8176327 108.732905,18.451102 L108.732905,17.5283265 C108.732905,13.804898 107.239478,12.3443265 105.845013,11.8653061 C107.371428,11.2628571 109.188731,9.70530612 109.188731,6.67836735 C109.188731,3.36930612 106.657701,0.603918367 101.364731,0.603918367 L90.2959753,0.603918367 L90.2959753,22.5242449 L96.6535374,22.5242449 L96.6535374,14.2515918 L98.962652,14.2515918 Z M96.6535374,5.08555102 L99.7093656,5.08555102 C101.724593,5.08555102 102.666232,5.94661224 102.666232,7.41012245 C102.666232,8.87657143 101.886531,9.76702041 99.7093656,9.76702041 L96.6535374,9.76702041 L96.6535374,5.08555102 Z M125.844344,18.2600816 L127.208821,22.5242449 L134.058194,22.5242449 L126.723007,0.603918367 L118.248257,0.603918367 L111.170971,22.5242449 L117.53453,22.5242449 L118.833032,18.2600816 L125.844344,18.2600816 Z M119.936609,13.490449 C120.812274,10.3400816 121.690937,7.21910204 122.209738,4.86514286 L122.305701,4.86514286 C122.794513,6.9957551 123.670178,10.0520816 124.70778,13.490449 L119.936609,13.490449 Z M136.400296,22.5242449 L152.792011,22.5242449 L153.508736,17.7546122 L142.98877,17.7546122 L142.98877,0.603918367 L136.400296,0.603918367 L136.400296,22.5242449 Z" id="Fill-3"></path>
                <path d="M0.864661654,36.9541013 L3.75375343,36.9541013 C6.15991783,36.9541013 7.73578607,35.1728145 7.73578607,32.6661295 C7.73578607,30.1622452 6.12320406,28.5490043 3.77917066,28.5490043 L0.864661654,28.5490043 L0.864661654,36.9541013 Z M1.72602333,29.3080118 L3.65773278,29.3080118 C5.88032831,29.3080118 6.81511753,30.9436587 6.81511753,32.7025394 C6.81511753,34.7022859 5.78148353,36.1978946 3.65773278,36.1978946 L1.72602333,36.1978946 L1.72602333,29.3080118 Z M9.54605765,36.9541013 L10.4074193,36.9541013 L10.4074193,28.5490043 L9.54605765,28.5490043 L9.54605765,36.9541013 Z M15.6179514,33.125455 C17.1966438,33.125455 17.5750781,33.6772058 17.5750781,34.9795617 L17.5750781,35.1728145 C17.5750781,35.9290211 17.5496609,36.5928025 17.7078125,36.9541013 L18.5691742,36.9541013 C18.4110225,36.6180094 18.4590329,35.8449982 18.4590329,35.2680405 L18.4590329,34.9319486 C18.4590329,33.4867537 17.8659642,32.9434052 17.0752059,32.7529532 C17.9619848,32.5344935 18.5917673,31.8623098 18.5917673,30.7756128 C18.5917673,29.4620539 17.696516,28.5490043 15.9935616,28.5490043 L12.8248803,28.5490043 L12.8248803,36.9541013 L13.6975385,36.9541013 L13.6975385,33.125455 L15.6179514,33.125455 Z M13.6975385,29.2940079 L15.8128168,29.2940079 C17.0526128,29.2940079 17.6823953,29.8485595 17.6823953,30.8260266 C17.6823953,31.8623098 17.0526128,32.3804514 15.6546652,32.3804514 L13.6975385,32.3804514 L13.6975385,29.2940079 Z M25.7198881,32.1507886 L21.4469694,32.1507886 L21.4469694,29.3080118 L25.9260501,29.3080118 L25.9260501,28.5490043 L20.5856077,28.5490043 L20.5856077,36.9541013 L26.0135983,36.9541013 L26.1350362,36.1978946 L21.4469694,36.1978946 L21.4469694,32.9069953 L25.7198881,32.9069953 L25.7198881,32.1507886 Z M33.407188,34.6434698 C33.0315779,35.5817262 32.3876747,36.3043237 31.0405615,36.3043237 C28.961997,36.3043237 28.1627663,34.4866269 28.1627663,32.7529532 C28.1627663,30.9800687 28.9874142,29.173575 30.9925512,29.173575 C32.3989713,29.173575 33.0682916,29.8849694 33.4213087,30.8960457 L34.2826704,30.8960457 C34.0143774,29.4872607 32.9355572,28.4285714 31.0264409,28.4285714 C28.5129593,28.4285714 27.2533943,30.487134 27.2533943,32.7641562 C27.2533943,35.1364045 28.5270799,37.0493273 31.0038478,37.0493273 C32.8621297,37.0493273 33.881643,36.0270479 34.2826704,34.6434698 L33.407188,34.6434698 Z M37.829786,36.9541013 L38.7024442,36.9541013 L38.7024442,29.3080118 L41.5068119,29.3080118 L41.5068119,28.5490043 L35.0367149,28.5490043 L35.0367149,29.3080118 L37.829786,29.3080118 L37.829786,36.9541013 Z M45.8672788,36.9541013 L46.7286405,36.9541013 L46.7286405,33.0386312 L50.8688248,33.0386312 L50.8688248,32.2824246 L46.7286405,32.2824246 L46.7286405,29.3080118 L51.1484143,29.3080118 L51.1484143,28.5490043 L45.8672788,28.5490043 L45.8672788,36.9541013 Z M55.4015641,33.125455 C56.9802565,33.125455 57.3558667,33.6772058 57.3558667,34.9795617 L57.3558667,35.1728145 C57.3558667,35.9290211 57.3332736,36.5928025 57.4886011,36.9541013 L58.3499628,36.9541013 C58.1918111,36.6180094 58.2426456,35.8449982 58.2426456,35.2680405 L58.2426456,34.9319486 C58.2426456,33.4867537 57.6467527,32.9434052 56.8588186,32.7529532 C57.7455975,32.5344935 58.37538,31.8623098 58.37538,30.7756128 C58.37538,29.4620539 57.4773045,28.5490043 55.7771743,28.5490043 L52.608493,28.5490043 L52.608493,36.9541013 L53.4811512,36.9541013 L53.4811512,33.125455 L55.4015641,33.125455 Z M53.4811512,29.2940079 L55.5936054,29.2940079 C56.8334014,29.2940079 57.466008,29.8485595 57.466008,30.8260266 C57.466008,31.8623098 56.8334014,32.3804514 55.4354538,32.3804514 L53.4811512,32.3804514 L53.4811512,29.2940079 Z M63.729943,28.4285714 C61.1910442,28.4285714 59.8213379,30.355498 59.8213379,32.7529532 C59.8213379,35.1616114 61.2051649,37.0745342 63.6452189,37.0745342 C66.2829625,37.0745342 67.5566482,35.0047685 67.5566482,32.6913363 C67.5566482,30.2210613 66.0880971,28.4285714 63.729943,28.4285714 L63.729943,28.4285714 Z M63.6932293,29.1875788 C65.6616525,29.1875788 66.6331555,30.8232258 66.6331555,32.7165432 C66.6331555,34.6182629 65.7717938,36.3183275 63.6819327,36.3183275 C61.7502233,36.3183275 60.7307099,34.5958568 60.7307099,32.7165432 C60.7307099,30.8596358 61.6429061,29.1875788 63.6932293,29.1875788 L63.6932293,29.1875788 Z M76.6644888,36.9541013 L77.5117298,36.9541013 L77.5117298,28.5490043 L76.2521648,28.5490043 C75.1451033,31.2349383 73.5918281,35.1980214 73.3969627,35.8954119 L73.3715455,35.8954119 C73.0693629,34.8955387 71.7335462,31.3049575 70.6631985,28.5490043 L69.3669197,28.5490043 L69.3669197,36.9541013 L70.2028642,36.9541013 L70.2028642,33.4755506 C70.2028642,32.0415588 70.177447,30.1146322 70.1181401,29.1511689 L70.1407332,29.1511689 C70.530464,30.498337 72.1458702,34.8591287 72.9225078,36.9541013 L73.7245626,36.9541013 C74.7581966,34.3045772 76.3255924,30.403111 76.6757853,29.162372 L76.7124991,29.162372 C76.6757853,30.0306092 76.6644888,31.6074401 76.6644888,33.220681 L76.6644888,36.9541013 Z M84.668092,36.9541013 L85.5407502,36.9541013 L85.5407502,29.3080118 L88.3451179,29.3080118 L88.3451179,28.5490043 L81.8750209,28.5490043 L81.8750209,29.3080118 L84.668092,29.3080118 L84.668092,36.9541013 Z M89.5849139,36.9541013 L90.4462756,36.9541013 L90.4462756,32.8957922 L95.2331871,32.8957922 L95.2331871,36.9541013 L96.1058454,36.9541013 L96.1058454,28.5490043 L95.2331871,28.5490043 L95.2331871,32.1395856 L90.4462756,32.1395856 L90.4462756,28.5490043 L89.5849139,28.5490043 L89.5849139,36.9541013 Z M103.64629,32.1507886 L99.3705473,32.1507886 L99.3705473,29.3080118 L103.852452,29.3080118 L103.852452,28.5490043 L98.5120098,28.5490043 L98.5120098,36.9541013 L103.937176,36.9541013 L104.058614,36.1978946 L99.3705473,36.1978946 L99.3705473,32.9069953 L103.64629,32.9069953 L103.64629,32.1507886 Z M108.724088,28.5490043 L108.724088,33.6800065 C108.724088,36.1838908 110.215232,37.0493273 111.929483,37.0493273 C113.703041,37.0493273 115.157471,36.2567107 115.157471,33.5847805 L115.157471,28.5490043 L114.284813,28.5490043 L114.284813,33.6323935 C114.284813,35.727366 113.302013,36.3043237 111.952076,36.3043237 C110.799828,36.3043237 109.608043,35.7525729 109.608043,33.6323935 L109.608043,28.5490043 L108.724088,28.5490043 Z M119.238348,36.9541013 L120.111007,36.9541013 L120.111007,29.3080118 L122.918199,29.3080118 L122.918199,28.5490043 L116.445277,28.5490043 L116.445277,29.3080118 L119.238348,29.3080118 L119.238348,36.9541013 Z M123.539509,34.6546729 C123.708957,35.859002 124.544901,37.0493273 126.671476,37.0493273 C128.68791,37.0493273 129.645292,35.9934387 129.645292,34.7022859 C129.645292,33.6547996 129.258385,32.7165432 126.852221,32.1255817 C125.321539,31.7530799 124.799074,31.4141873 124.799074,30.5599539 C124.799074,29.6805136 125.43168,29.162372 126.572631,29.162372 C127.860438,29.162372 128.397024,29.8009465 128.577768,30.6327738 L129.464547,30.6327738 C129.354406,29.5712837 128.541055,28.4285714 126.609345,28.4285714 C124.751063,28.4285714 123.889702,29.4508508 123.889702,30.61877 C123.889702,31.8230991 124.629625,32.4392675 126.513324,32.9069953 C128.309475,33.3411139 128.724623,33.8732593 128.724623,34.7751058 C128.724623,35.6433431 128.165444,36.3407336 126.719486,36.3407336 C125.394966,36.3407336 124.677636,35.727366 124.43476,34.6546729 L123.539509,34.6546729 Z M136.567251,28.5490043 L135.694593,28.5490043 L135.694593,34.5958568 C135.694593,35.4977033 135.561858,36.3183275 134.468917,36.3183275 C134.200624,36.3183275 133.873025,36.2931206 133.703576,36.2567107 L133.703576,37.0017143 C133.932331,37.0381242 134.152614,37.0745342 134.502807,37.0745342 C135.76802,37.0745342 136.567251,36.4723696 136.567251,34.5958568 L136.567251,28.5490043 Z M142.252238,28.4285714 C139.713339,28.4285714 138.340809,30.355498 138.340809,32.7529532 C138.340809,35.1616114 139.724636,37.0745342 142.16469,37.0745342 C144.802433,37.0745342 146.076119,35.0047685 146.076119,32.6913363 C146.076119,30.2210613 144.607568,28.4285714 142.252238,28.4285714 L142.252238,28.4285714 Z M142.215524,29.1875788 C144.181123,29.1875788 145.152626,30.8232258 145.152626,32.7165432 C145.152626,34.6182629 144.291265,36.3183275 142.201403,36.3183275 C140.269694,36.3183275 139.250181,34.5958568 139.250181,32.7165432 C139.250181,30.8596358 140.162377,29.1875788 142.215524,29.1875788 L142.215524,29.1875788 Z M147.88639,28.5490043 L147.88639,33.6800065 C147.88639,36.1838908 149.377535,37.0493273 151.091786,37.0493273 C152.865343,37.0493273 154.319774,36.2567107 154.319774,33.5847805 L154.319774,28.5490043 L153.447115,28.5490043 L153.447115,33.6323935 C153.447115,35.727366 152.464316,36.3043237 151.114379,36.3043237 C149.962131,36.3043237 148.770345,35.7525729 148.770345,33.6323935 L148.770345,28.5490043 L147.88639,28.5490043 Z M159.408868,33.125455 C160.98756,33.125455 161.365995,33.6772058 161.365995,34.9795617 L161.365995,35.1728145 C161.365995,35.9290211 161.340577,36.5928025 161.498729,36.9541013 L162.360091,36.9541013 C162.201939,36.6180094 162.249949,35.8449982 162.249949,35.2680405 L162.249949,34.9319486 C162.249949,33.4867537 161.656881,32.9434052 160.866122,32.7529532 C161.752901,32.5344935 162.382684,31.8623098 162.382684,30.7756128 C162.382684,29.4620539 161.487432,28.5490043 159.787302,28.5490043 L156.618621,28.5490043 L156.618621,36.9541013 L157.491279,36.9541013 L157.491279,33.125455 L159.408868,33.125455 Z M157.491279,29.2940079 L159.603733,29.2940079 C160.843529,29.2940079 161.476136,29.8485595 161.476136,30.8260266 C161.476136,31.8623098 160.843529,32.3804514 159.445582,32.3804514 L157.491279,32.3804514 L157.491279,29.2940079 Z M165.226589,36.9541013 L165.226589,33.2935009 C165.226589,31.7754861 165.226589,30.450724 165.164458,29.4144408 L165.189876,29.4144408 C165.760351,30.355498 168.722871,35.0635846 169.925953,36.9541013 L171.041487,36.9541013 L171.041487,28.5490043 L170.205542,28.5490043 L170.205542,32.1115779 C170.205542,33.4867537 170.194246,34.7639027 170.267673,35.9206188 L170.253553,35.9206188 C169.745208,35.0047685 166.853292,30.5459501 165.576782,28.5490043 L164.376524,28.5490043 L164.376524,36.9541013 L165.226589,36.9541013 Z M177.890018,34.2205542 L178.912355,36.9541013 L179.847145,36.9541013 L176.653046,28.5490043 L175.596819,28.5490043 L172.524158,36.9541013 L173.399641,36.9541013 L174.407858,34.2205542 L177.890018,34.2205542 Z M174.66203,33.4643476 C175.36524,31.4393942 175.899002,29.9801954 176.107988,29.3080118 L176.119284,29.3080118 C176.288733,29.9101763 176.749067,31.0892985 177.635846,33.4643476 L174.66203,33.4643476 Z M181.281806,36.9541013 L186.500811,36.9541013 L186.633545,36.1978946 L182.140344,36.1978946 L182.140344,28.5490043 L181.281806,28.5490043 L181.281806,36.9541013 Z M187.910055,36.9541013 L188.771416,36.9541013 L188.771416,28.5490043 L187.910055,28.5490043 L187.910055,36.9541013 Z M190.474371,34.6546729 C190.643819,35.859002 191.479763,37.0493273 193.606338,37.0493273 C195.622772,37.0493273 196.580154,35.9934387 196.580154,34.7022859 C196.580154,33.6547996 196.193248,32.7165432 193.787083,32.1255817 C192.256401,31.7530799 191.733936,31.4141873 191.733936,30.5599539 C191.733936,29.6805136 192.366542,29.162372 193.507494,29.162372 C194.7953,29.162372 195.331886,29.8009465 195.512631,30.6327738 L196.399409,30.6327738 C196.289268,29.5712837 195.475917,28.4285714 193.544207,28.4285714 C191.685925,28.4285714 190.824564,29.4508508 190.824564,30.61877 C190.824564,31.8230991 191.564488,32.4392675 193.448187,32.9069953 C195.244338,33.3411139 195.659486,33.8732593 195.659486,34.7751058 C195.659486,35.6433431 195.100307,36.3407336 193.654349,36.3407336 C192.329829,36.3407336 191.612498,35.727366 191.369622,34.6546729 L190.474371,34.6546729 Z M205.628688,36.9541013 L206.475929,36.9541013 L206.475929,28.5490043 L205.216364,28.5490043 C204.109302,31.2349383 202.556027,35.1980214 202.361162,35.8954119 L202.335745,35.8954119 C202.033562,34.8955387 200.697745,31.3049575 199.627398,28.5490043 L198.331119,28.5490043 L198.331119,36.9541013 L199.167063,36.9541013 L199.167063,33.4755506 C199.167063,32.0415588 199.141646,30.1146322 199.082339,29.1511689 L199.104932,29.1511689 C199.494663,30.498337 201.110069,34.8591287 201.886707,36.9541013 L202.688762,36.9541013 C203.722396,34.3045772 205.286967,30.403111 205.639985,29.162372 L205.676698,29.162372 C205.639985,30.0306092 205.628688,31.6074401 205.628688,33.220681 L205.628688,36.9541013 Z M211.906744,36.9541013 L217.125748,36.9541013 L217.261307,36.1978946 L212.768105,36.1978946 L212.768105,28.5490043 L211.906744,28.5490043 L211.906744,36.9541013 Z M223.539363,34.2205542 L224.558876,36.9541013 L225.493665,36.9541013 L222.299567,28.5490043 L221.243339,28.5490043 L218.173503,36.9541013 L219.046161,36.9541013 L220.054378,34.2205542 L223.539363,34.2205542 Z M220.30855,33.4643476 C221.014584,31.4393942 221.548346,29.9801954 221.754508,29.3080118 L221.765805,29.3080118 C221.935253,29.9101763 222.398411,31.0892985 223.28519,33.4643476 L220.30855,33.4643476 Z M226.928326,36.9541013 L230.085711,36.9541013 C231.616393,36.9541013 232.864662,36.1474808 232.864662,34.5090331 C232.864662,33.2318841 231.907279,32.6437233 231.311387,32.4616736 C231.977883,32.2572177 232.573776,31.621444 232.573776,30.6327738 C232.573776,29.4396477 231.712414,28.5490043 230.02358,28.5490043 L226.928326,28.5490043 L226.928326,36.9541013 Z M227.775567,32.1143787 L227.775567,29.2940079 L230.02358,29.2940079 C231.116521,29.2940079 231.686997,29.8961725 231.686997,30.6915899 C231.686997,31.5962371 231.164531,32.1143787 229.806122,32.1143787 L227.775567,32.1143787 Z M227.775567,32.8481792 L229.743991,32.8481792 C231.322683,32.8481792 231.966586,33.5343667 231.966586,34.53424 C231.966586,35.679753 231.130642,36.2090977 230.034877,36.2090977 L227.775567,36.2090977 L227.775567,32.8481792 Z" id="Fill-5"></path>
            </g>
        </g>
    </g>
</svg>