<?xml version="1.0" encoding="UTF-8" standalone="no"?>
<svg width="173px" height="34px" viewBox="0 0 173 34" version="1.1" xmlns="http://www.w3.org/2000/svg" xmlns:xlink="http://www.w3.org/1999/xlink">
    <!-- Generator: Sketch 41.2 (35397) - http://www.bohemiancoding.com/sketch -->
    <title>Group 2</title>
    <desc>Created with Sketch.</desc>
    <defs></defs>
    <g id="Symbols" stroke="none" stroke-width="1" fill="none" fill-rule="evenodd">
        <g id="Small-menu-header" transform="translate(-111.000000, -18.000000)">
            <g id="Group-2" transform="translate(111.000000, 18.000000)">
                <path d="M0.0001,31.0274 L39.0001,31.0274" id="Stroke-1" stroke="#FEFEFE" stroke-width="4.8"></path>
                <path d="M9.7568,14.9869 C12.7468,14.9869 13.2508,16.0619 13.2508,18.0779 L13.2508,18.6829 C13.2508,21.0349 13.3518,22.7149 13.7218,23.7229 L20.1728,23.7229 C19.9378,22.7149 19.8708,20.8669 19.8708,19.4219 L19.8708,18.4479 C19.8708,14.5169 18.3248,12.9709 16.8798,12.4669 C18.4588,11.8289 20.3408,10.1819 20.3408,6.9899 C20.3408,3.4959 17.7198,0.5729 12.2428,0.5729 L0.7858,0.5729 L0.7858,23.7229 L7.3708,23.7229 L7.3708,14.9869 L9.7568,14.9869 Z M7.3708,5.3099 L10.5298,5.3099 C12.6128,5.3099 13.5868,6.2169 13.5868,7.7629 C13.5868,9.3089 12.7808,10.2489 10.5298,10.2489 L7.3708,10.2489 L7.3708,5.3099 Z M40.5008,16.1969 C40.5678,15.7259 40.5678,15.2889 40.5678,14.6849 C40.5678,10.3169 38.4848,5.6799 31.6638,5.6799 C25.2468,5.6799 22.4578,9.7449 22.4578,15.0539 C22.4578,19.6569 24.8768,24.1599 31.5298,24.1599 C37.7798,24.1599 39.7618,20.5309 40.3998,18.1789 L33.9828,18.1789 C33.6468,19.1199 33.2098,19.7579 31.6638,19.7579 C29.7158,19.7579 29.0438,17.9769 29.0438,16.1969 L40.5008,16.1969 Z M29.1108,12.8029 C29.2118,11.0559 29.8838,9.7449 31.6308,9.7449 C33.5118,9.7449 33.9828,11.1569 34.0158,12.8029 L29.1108,12.8029 Z M50.0428,33.3739 L50.0428,22.4799 C50.7488,23.3869 51.9578,24.1599 54.1418,24.1599 C58.2078,24.1599 61.8698,21.0009 61.8698,14.4829 C61.8698,8.7369 58.6778,5.6799 54.9818,5.6799 C52.1598,5.6799 50.7488,7.0239 50.0428,8.0649 C50.0428,7.5609 49.9418,6.5529 49.8748,6.1169 L43.4908,6.1169 C43.5248,7.3599 43.5248,9.2749 43.5248,10.8539 L43.5248,33.3739 L50.0428,33.3739 Z M55.2178,14.7519 C55.2178,18.1449 54.3438,19.6239 52.3948,19.6239 C50.4798,19.6239 49.8418,18.0449 49.8418,14.9869 C49.8418,11.6939 50.4798,10.2829 52.5298,10.2829 C54.2098,10.2829 55.2178,11.4929 55.2178,14.7519 L55.2178,14.7519 Z M73.6968,5.6799 C67.3808,5.6799 64.1548,9.6449 64.1548,14.9529 C64.1548,20.0609 67.2458,24.1599 73.4958,24.1599 C79.5438,24.1599 82.9368,20.3969 82.9368,14.8859 C82.9368,9.5439 79.5098,5.6799 73.6968,5.6799 L73.6968,5.6799 Z M73.5628,10.1149 C75.3438,10.1149 76.2508,11.3579 76.2508,14.9869 C76.2508,18.2459 75.3098,19.7579 73.5968,19.7579 C71.8158,19.7579 70.8408,18.2799 70.8408,14.9199 C70.8408,11.2909 71.9168,10.1149 73.5628,10.1149 L73.5628,10.1149 Z M85.8598,23.7229 L92.4118,23.7229 L92.4118,16.4989 C92.4118,12.3659 94.0918,11.4929 97.7878,11.6609 L97.7878,5.6799 C94.7638,5.7129 93.0508,7.2929 92.3788,8.9729 C92.3788,8.1999 92.3108,6.6539 92.2108,6.1169 L85.8268,6.1169 C85.8598,7.6619 85.8598,9.4769 85.8598,11.1569 L85.8598,23.7229 Z M99.6348,10.5179 L102.1218,10.5179 L102.1218,18.6489 C102.1218,21.9759 103.2978,23.9919 107.4638,23.9919 C108.5388,23.9919 110.2528,23.9249 111.2948,23.5889 L111.2948,19.5569 C110.9248,19.5899 110.6228,19.5899 110.3538,19.5899 C108.9758,19.5899 108.6398,19.1869 108.6398,18.0779 L108.6398,10.5179 L111.7308,10.5179 L111.7308,6.1169 L108.6398,6.1169 L108.6398,1.5469 L102.1548,1.5469 L102.1548,6.1169 L99.6348,6.1169 L99.6348,10.5179 Z M130.5468,12.1649 C130.5468,7.9309 128.1948,5.7129 122.4158,5.6799 C116.1658,5.6459 114.4188,8.5359 114.1838,11.4929 L120.2318,11.4929 C120.3998,10.3499 120.7698,9.6779 122.2478,9.6779 C123.8268,9.6779 124.2298,10.4849 124.2298,11.6269 L124.2298,12.6009 L122.0798,12.6009 C116.7038,12.6009 113.3778,14.3819 113.3778,18.5489 C113.3778,21.6729 115.5278,24.1599 119.4588,24.1599 C122.3148,24.1599 123.5918,23.1849 124.4318,22.1099 C124.4658,22.5129 124.5658,23.3529 124.7008,23.7229 L130.7488,23.7229 C130.6478,23.1179 130.5468,20.4969 130.5468,18.5149 L130.5468,12.1649 Z M124.2298,16.4319 C124.2298,18.3469 123.9278,19.8589 121.7098,19.8589 C120.3998,19.8589 119.7948,19.0189 119.7948,18.0109 C119.7948,16.7009 120.5338,15.8939 122.7858,15.8939 L124.2298,15.8939 L124.2298,16.4319 Z M151.8488,11.1569 C151.8488,9.1069 151.8828,7.4609 151.9168,6.1169 L145.5658,6.1169 C145.5318,6.4189 145.4318,7.2929 145.3978,7.7289 C145.1288,6.9229 143.8858,5.6799 141.0638,5.6799 C136.6618,5.6799 133.5038,9.4429 133.5038,14.9199 C133.5038,19.5899 136.0238,23.3529 140.6598,23.3529 C143.1468,23.3529 144.4908,22.4799 145.3978,21.1359 L145.3978,22.0769 C145.3978,24.9659 144.9278,26.3099 142.6428,26.3099 C141.1648,26.3099 140.5928,25.6719 140.3578,24.7309 L133.9068,24.7309 C134.0748,26.7129 135.3178,30.5099 142.4078,30.5099 C149.8328,30.5099 151.8488,26.8479 151.8488,21.1019 L151.8488,11.1569 Z M140.2238,14.6169 C140.2238,11.3919 141.4668,10.1819 142.9788,10.1819 C145.2968,10.1819 145.5998,11.7949 145.5998,14.5499 C145.5998,17.1709 145.0958,18.8169 142.8778,18.8169 C141.2318,18.8169 140.2238,17.2719 140.2238,14.6169 L140.2238,14.6169 Z M172.7818,16.1969 C172.8488,15.7259 172.8488,15.2889 172.8488,14.6849 C172.8488,10.3169 170.7658,5.6799 163.9448,5.6799 C157.5268,5.6799 154.7388,9.7449 154.7388,15.0539 C154.7388,19.6569 157.1578,24.1599 163.8108,24.1599 C170.0598,24.1599 172.0428,20.5309 172.6808,18.1789 L166.2628,18.1789 C165.9268,19.1199 165.4908,19.7579 163.9448,19.7579 C161.9958,19.7579 161.3238,17.9769 161.3238,16.1969 L172.7818,16.1969 Z M161.3908,12.8029 C161.4918,11.0559 162.1638,9.7449 163.9108,9.7449 C165.7928,9.7449 166.2628,11.1569 166.2968,12.8029 L161.3908,12.8029 Z" id="Fill-2" fill="#FEFEFE"></path>
            </g>
        </g>
    </g>
</svg>