<?xml version="1.0" encoding="UTF-8" standalone="no"?>
<svg width="266px" height="51px" viewBox="0 0 266 51" version="1.1" xmlns="http://www.w3.org/2000/svg" xmlns:xlink="http://www.w3.org/1999/xlink">
    <!-- Generator: Sketch 41.2 (35397) - http://www.bohemiancoding.com/sketch -->
    <title>Group 2</title>
    <desc>Created with Sketch.</desc>
    <defs></defs>
    <g id="Mobilesite" stroke="none" stroke-width="1" fill="none" fill-rule="evenodd">
        <g id="Mobile---Blog-page-with-menu-drop-down" transform="translate(-35.000000, -33.000000)">
            <g id="Group-2" transform="translate(35.000000, 33.000000)">
                <g id="Group">
                    <path d="M0,46.7664 L59.889,46.7664" id="Stroke-1" stroke="#FEFEFE" stroke-width="7.371"></path>
                    <path d="M14.9827,22.135 C19.5747,22.135 20.3487,23.786 20.3487,26.882 L20.3487,27.811 C20.3487,31.422 20.5037,34.002 21.0707,35.55 L30.9777,35.55 C30.6167,34.002 30.5137,31.164 30.5137,28.946 L30.5137,27.449 C30.5137,21.413 28.1397,19.039 25.9217,18.265 C28.3467,17.285 31.2357,14.757 31.2357,9.855 C31.2357,4.489 27.2107,0 18.8007,0 L1.2067,0 L1.2067,35.55 L11.3197,35.55 L11.3197,22.135 L14.9827,22.135 Z M11.3197,7.275 L16.1697,7.275 C19.3687,7.275 20.8647,8.668 20.8647,11.042 C20.8647,13.415 19.6267,14.86 16.1697,14.86 L11.3197,14.86 L11.3197,7.275 Z M62.1937,23.992 C62.2977,23.27 62.2977,22.599 62.2977,21.671 C62.2977,14.963 59.0987,7.843 48.6237,7.843 C38.7687,7.843 34.4867,14.086 34.4867,22.238 C34.4867,29.307 38.2017,36.221 48.4177,36.221 C58.0147,36.221 61.0587,30.648 62.0397,27.037 L52.1847,27.037 C51.6687,28.481 50.9977,29.462 48.6237,29.462 C45.6317,29.462 44.5997,26.727 44.5997,23.992 L62.1937,23.992 Z M44.7027,18.781 C44.8577,16.098 45.8897,14.086 48.5727,14.086 C51.4617,14.086 52.1847,16.253 52.2357,18.781 L44.7027,18.781 Z M76.8467,50.371 L76.8467,33.641 C77.9307,35.034 79.7877,36.221 83.1417,36.221 C89.3847,36.221 95.0087,31.371 95.0087,21.361 C95.0087,12.538 90.1077,7.843 84.4317,7.843 C80.0977,7.843 77.9307,9.907 76.8467,11.506 C76.8467,10.732 76.6917,9.184 76.5887,8.513 L66.7857,8.513 C66.8367,10.423 66.8367,13.364 66.8367,15.789 L66.8367,50.371 L76.8467,50.371 Z M84.7927,21.774 C84.7927,26.985 83.4517,29.255 80.4587,29.255 C77.5177,29.255 76.5377,26.83 76.5377,22.135 C76.5377,17.079 77.5177,14.911 80.6647,14.911 C83.2447,14.911 84.7927,16.769 84.7927,21.774 L84.7927,21.774 Z M113.1707,7.843 C103.4707,7.843 98.5177,13.931 98.5177,22.083 C98.5177,29.926 103.2637,36.221 112.8617,36.221 C122.1487,36.221 127.3597,30.442 127.3597,21.98 C127.3597,13.776 122.0967,7.843 113.1707,7.843 L113.1707,7.843 Z M112.9647,14.653 C115.6987,14.653 117.0917,16.563 117.0917,22.135 C117.0917,27.14 115.6477,29.462 113.0157,29.462 C110.2817,29.462 108.7847,27.191 108.7847,22.032 C108.7847,16.459 110.4357,14.653 112.9647,14.653 L112.9647,14.653 Z M131.8477,35.55 L141.9097,35.55 L141.9097,24.457 C141.9097,18.11 144.4897,16.769 150.1647,17.027 L150.1647,7.843 C145.5217,7.894 142.8897,10.319 141.8577,12.899 C141.8577,11.712 141.7547,9.339 141.5997,8.513 L131.7967,8.513 C131.8477,10.887 131.8477,13.673 131.8477,16.253 L131.8477,35.55 Z M153.0017,15.273 L156.8197,15.273 L156.8197,27.759 C156.8197,32.867 158.6257,35.963 165.0237,35.963 C166.6747,35.963 169.3067,35.86 170.9057,35.344 L170.9057,29.152 C170.3387,29.204 169.8737,29.204 169.4607,29.204 C167.3457,29.204 166.8297,28.585 166.8297,26.882 L166.8297,15.273 L171.5767,15.273 L171.5767,8.513 L166.8297,8.513 L166.8297,1.496 L156.8717,1.496 L156.8717,8.513 L153.0017,8.513 L153.0017,15.273 Z M200.4707,17.801 C200.4707,11.3 196.8587,7.894 187.9837,7.843 C178.3867,7.791 175.7037,12.228 175.3427,16.769 L184.6297,16.769 C184.8877,15.015 185.4557,13.983 187.7257,13.983 C190.1507,13.983 190.7697,15.221 190.7697,16.975 L190.7697,18.472 L187.4677,18.472 C179.2127,18.472 174.1047,21.206 174.1047,27.604 C174.1047,32.403 177.4067,36.221 183.4437,36.221 C187.8287,36.221 189.7897,34.725 191.0797,33.074 C191.1317,33.693 191.2857,34.983 191.4927,35.55 L200.7797,35.55 C200.6247,34.621 200.4707,30.597 200.4707,27.553 L200.4707,17.801 Z M190.7697,24.354 C190.7697,27.295 190.3057,29.617 186.9007,29.617 C184.8877,29.617 183.9597,28.327 183.9597,26.779 C183.9597,24.766 185.0947,23.528 188.5517,23.528 L190.7697,23.528 L190.7697,24.354 Z M233.1827,16.253 C233.1827,13.106 233.2337,10.577 233.2857,8.513 L223.5337,8.513 C223.4817,8.978 223.3277,10.319 223.2757,10.99 C222.8627,9.752 220.9537,7.843 216.6197,7.843 C209.8607,7.843 205.0107,13.622 205.0107,22.032 C205.0107,29.204 208.8807,34.983 216.0007,34.983 C219.8187,34.983 221.8827,33.641 223.2757,31.577 L223.2757,33.022 C223.2757,37.459 222.5537,39.523 219.0447,39.523 C216.7747,39.523 215.8977,38.543 215.5367,37.098 L205.6297,37.098 C205.8877,40.142 207.7967,45.973 218.6837,45.973 C230.0867,45.973 233.1827,40.349 233.1827,31.526 L233.1827,16.253 Z M215.3297,21.567 C215.3297,16.614 217.2387,14.757 219.5607,14.757 C223.1207,14.757 223.5857,17.233 223.5857,21.464 C223.5857,25.489 222.8117,28.017 219.4057,28.017 C216.8777,28.017 215.3297,25.644 215.3297,21.567 L215.3297,21.567 Z M265.3267,23.992 C265.4297,23.27 265.4297,22.599 265.4297,21.671 C265.4297,14.963 262.2307,7.843 251.7567,7.843 C241.9017,7.843 237.6187,14.086 237.6187,22.238 C237.6187,29.307 241.3337,36.221 251.5507,36.221 C261.1477,36.221 264.1917,30.648 265.1717,27.037 L255.3167,27.037 C254.8007,28.481 254.1297,29.462 251.7567,29.462 C248.7637,29.462 247.7317,26.727 247.7317,23.992 L265.3267,23.992 Z M247.8357,18.781 C247.9897,16.098 249.0217,14.086 251.7047,14.086 C254.5947,14.086 255.3167,16.253 255.3687,18.781 L247.8357,18.781 Z" id="Fill-2" fill="#FEFEFE"></path>
                </g>
            </g>
        </g>
    </g>
</svg>