<?xml version="1.0" encoding="UTF-8" standalone="no"?>
<svg
   xmlns:dc="http://purl.org/dc/elements/1.1/"
   xmlns:cc="http://creativecommons.org/ns#"
   xmlns:rdf="http://www.w3.org/1999/02/22-rdf-syntax-ns#"
   xmlns:svg="http://www.w3.org/2000/svg"
   xmlns="http://www.w3.org/2000/svg"
   xmlns:sodipodi="http://sodipodi.sourceforge.net/DTD/sodipodi-0.dtd"
   xmlns:inkscape="http://www.inkscape.org/namespaces/inkscape"
   width="249.76228"
   height="22.935085"
   viewBox="0 0 249.76228 22.935085"
   version="1.1"
   id="svg2"
   inkscape:version="0.91 r13725"
   sodipodi:docname="Desktopsite_3.svg">
  <metadata
     id="metadata18">
    <rdf:RDF>
      <cc:Work
         rdf:about="">
        <dc:format>image/svg+xml</dc:format>
        <dc:type
           rdf:resource="http://purl.org/dc/dcmitype/StillImage" />
        <dc:title>72FFB375-5C25-469D-B12D-AF929EB12AD6</dc:title>
      </cc:Work>
    </rdf:RDF>
  </metadata>
  <sodipodi:namedview
     pagecolor="#ffffff"
     bordercolor="#666666"
     borderopacity="1"
     objecttolerance="10"
     gridtolerance="10"
     guidetolerance="10"
     inkscape:pageopacity="0"
     inkscape:pageshadow="2"
     inkscape:window-width="640"
     inkscape:window-height="480"
     id="namedview16"
     showgrid="false"
     fit-margin-top="0"
     fit-margin-left="0"
     fit-margin-right="0"
     fit-margin-bottom="0"
     inkscape:zoom="4.76"
     inkscape:cx="109.73833"
     inkscape:cy="21.585806"
     inkscape:current-layer="Symbols" />
  <!-- Generator: sketchtool 42 (36781) - http://www.bohemiancoding.com/sketch -->
  <title
     id="title4">72FFB375-5C25-469D-B12D-AF929EB12AD6</title>
  <desc
     id="desc6">Created with sketchtool.</desc>
  <defs
     id="defs8" />
  <g
     id="Symbols"
     style="fill:none;fill-rule:evenodd;stroke:none;stroke-width:1"
     transform="translate(-5.9977001e-4,-5.877551e-4)">
    <g
       id="Header-and-menu"
       transform="translate(-102,-22)"
       style="fill:#00ffff;fill-opacity:1">
      <g
         id="Group-3"
         transform="translate(102,22)"
         style="fill:#00ffff;fill-opacity:1">
        <path
           d="m 166.42898,22.523363 0,-9.67151 c 0,-4.0114285 0,-7.5115101 -0.16194,-10.2475101 l 0.066,0 c 1.52641,2.4832653 9.44937,14.9231021 12.66414,19.9190201 l 2.98386,0 0,-22.20538749 -2.23714,0 0,9.41289799 c 0,3.6323265 -0.03,7.0060405 0.16493,10.0594285 l -0.033,0 C 178.51135,17.37169 170.78031,5.5960163 167.37062,0.31797551 l -3.21177,0 0,22.20538749 2.27013,0 z m 33.74929,-12.6925712 -11.43161,0 0,-7.5115102 11.9834,0 0,-2.00130609 -14.28352,0 0,22.20538749 14.50843,0 0.32688,-2.001306 -12.53519,0 0,-8.689959 11.43161,0 0,-2.0013062 z m 12.14535,12.6925712 c 1.5564,-5.345632 4.77117,-16.163265 5.42192,-19.2489793 l 0.03,0 c 0.45583,2.224653 3.70059,14.0620403 5.13104,19.2489793 l 2.56401,0 6.7864,-22.20538749 -2.30611,0 C 228.5234,5.2815674 225.01475,16.448914 224.30102,19.919608 l -0.033,0 C 223.8482,17.786057 220.4385,5.5372408 219.01105,0.31797551 l -2.37209,0 C 215.11554,6.110302 211.63988,17.56271 211.15406,19.981322 l -0.033,0 c -0.4858,-2.577306 -3.47265,-13.4595914 -5.09803,-19.66334649 l -2.43207,0 6.19863,22.20538749 2.53403,0 z m 21.11052,-6.074449 c 0.45582,3.182694 2.69296,6.330123 8.37579,6.330123 5.39193,0 7.95295,-2.797715 7.95295,-6.203755 0,-2.768327 -1.03761,-5.248653 -7.46714,-6.8091432 -4.09043,-0.9874286 -5.4879,-1.8778776 -5.4879,-4.1377959 0,-2.3245715 1.68836,-3.6911021 4.74119,-3.6911021 3.44268,0 4.87313,1.6868572 5.35894,3.8821225 l 2.36909,0 c -0.29089,-2.8006531 -2.46505,-5.8187755449 -7.62907,-5.8187755449 -4.9691,0 -7.27221,2.7007347449 -7.27221,5.7864489449 0,3.1826939 1.97924,4.8048983 7.01131,6.0480003 4.80715,1.146122 5.91073,2.544979 5.91073,4.931265 0,2.292245 -1.49343,4.137796 -5.35894,4.137796 -3.53865,0 -5.45491,-1.622204 -6.10266,-4.455184 l -2.40208,0 z"
           id="Fill-1"
           style="fill:#ffffff;fill-opacity:1"
           inkscape:connector-curvature="0" />
        <path
           d="m 14.736949,15.303674 c -0.290888,1.240163 -1.007614,3.11804 -3.637605,3.11804 -3.4396812,0 -4.3483327,-3.435428 -4.3483327,-6.906122 0,-3.8497961 1.1035768,-6.809143 4.2853567,-6.809143 2.435066,0 3.343718,1.4635102 3.667594,3.0210612 l 6.495509,0 C 20.743646,3.9423674 17.756791,0.18955102 11.198306,0.18955102 3.5032567,0.18955102 5.9977001e-4,5.5322449 5.9977001e-4,11.738939 c 0,6.365387 3.53564422999,11.196734 10.87383022999,11.196734 6.135647,0 9.54534,-3.050449 10.388017,-7.631999 l -6.525498,0 z m 26.137977,-6.394776 -10.19609,0 0,-3.535347 10.618928,0 0,-4.76963263 -16.913514,0 0,21.92032663 16.943503,0 0.746713,-4.769633 -11.39563,0 0,-4.108408 10.19609,0 0,-4.737306 z m 10.226079,13.615347 0,-4.931265 c 0,-3.849796 -0.03299,-8.0816331 -0.224914,-10.1475922 l 0.06298,0 c 1.073588,2.8946942 5.134031,11.1026942 7.017309,15.0788572 l 7.464138,0 0,-21.92032663 -5.97071,0 0,4.67559183 c 0,3.5000816 0.06597,7.3498778 0.323875,9.6421228 l -0.12895,0 C 58.70309,12.21502 55.293397,5.5351837 52.954294,0.60391837 l -7.853988,0 0,21.92032663 6.000699,0 z m 23.642934,0 6.552487,0 0,-17.150694 6.333572,0 0,-4.76963263 -19.282606,0 0,4.76963263 6.396547,0 0,17.150694 z m 24.218713,-8.272653 c 2.890888,0 3.376708,1.016816 3.376708,2.92702 l 0,0.573061 c 0,2.227592 0.099,3.81747 0.45582,4.772572 l 6.23161,0 c -0.22791,-0.955102 -0.29388,-2.706612 -0.29388,-4.073143 l 0,-0.922776 c 0,-3.723428 -1.49343,-5.184 -2.8879,-5.66302 1.52642,-0.602449 3.34372,-2.1599999 3.34372,-5.1869387 0,-3.3090612 -2.53103,-6.07444893 -7.824,-6.07444893 l -11.068755,0 0,21.92032663 6.357562,0 0,-8.272653 2.309115,0 z m -2.309115,-9.166041 3.055829,0 c 2.015224,0 2.956864,0.8610612 2.956864,2.3245714 0,1.466449 -0.7797,2.356898 -2.956864,2.356898 l -3.055829,0 0,-4.6814694 z m 29.190803,13.174531 1.36448,4.264163 6.84937,0 -7.33518,-21.92032663 -8.47475,0 -7.07729,21.92032663 6.36356,0 1.2985,-4.264163 7.01131,0 z m -5.90773,-4.769633 c 0.87566,-3.150367 1.75433,-6.271347 2.27313,-8.6253061 l 0.096,0 c 0.48881,2.1306122 1.36448,5.1869391 2.40208,8.6253061 l -4.77117,0 z m 16.46369,9.033796 16.39171,0 0.71673,-4.769633 -10.51997,0 0,-17.15069363 -6.58847,0 0,21.92032663 z"
           id="Fill-3"
           style="fill:#ffffff;fill-opacity:1"
           inkscape:connector-curvature="0" />
      </g>
    </g>
  </g>
</svg>
