<?xml version="1.0" encoding="UTF-8" standalone="no"?>
<svg width="267px" height="51px" viewBox="0 0 267 51" version="1.1" xmlns="http://www.w3.org/2000/svg" xmlns:xlink="http://www.w3.org/1999/xlink">
    <!-- Generator: Sketch 41.2 (35397) - http://www.bohemiancoding.com/sketch -->
    <title>Group 2</title>
    <desc>Created with Sketch.</desc>
    <defs></defs>
    <g id="Symbols" stroke="none" stroke-width="1" fill="none" fill-rule="evenodd">
        <g id="Mobilesite---Header" transform="translate(-142.000000, -9.000000)">
            <g id="Group-2" transform="translate(142.000000, 9.000000)">
                <path d="M0.6722,47.2033 L60.5612,47.2033" id="Stroke-1" stroke="#FEFEFE" stroke-width="7.371"></path>
                <path d="M15.6549,22.5719 C20.2469,22.5719 21.0209,24.2229 21.0209,27.3189 L21.0209,28.2479 C21.0209,31.8589 21.1759,34.4389 21.7429,35.9869 L31.6499,35.9869 C31.2889,34.4389 31.1859,31.6009 31.1859,29.3829 L31.1859,27.8859 C31.1859,21.8499 28.8119,19.4759 26.5939,18.7019 C29.0189,17.7219 31.9079,15.1939 31.9079,10.2919 C31.9079,4.9259 27.8829,0.4369 19.4729,0.4369 L1.8789,0.4369 L1.8789,35.9869 L11.9919,35.9869 L11.9919,22.5719 L15.6549,22.5719 Z M11.9919,7.7119 L16.8419,7.7119 C20.0409,7.7119 21.5369,9.1049 21.5369,11.4789 C21.5369,13.8519 20.2989,15.2969 16.8419,15.2969 L11.9919,15.2969 L11.9919,7.7119 Z M62.8659,24.4289 C62.9699,23.7069 62.9699,23.0359 62.9699,22.1079 C62.9699,15.3999 59.7709,8.2799 49.2959,8.2799 C39.4409,8.2799 35.1589,14.5229 35.1589,22.6749 C35.1589,29.7439 38.8739,36.6579 49.0899,36.6579 C58.6869,36.6579 61.7309,31.0849 62.7119,27.4739 L52.8569,27.4739 C52.3409,28.9179 51.6699,29.8989 49.2959,29.8989 C46.3039,29.8989 45.2719,27.1639 45.2719,24.4289 L62.8659,24.4289 Z M45.3749,19.2179 C45.5299,16.5349 46.5619,14.5229 49.2449,14.5229 C52.1339,14.5229 52.8569,16.6899 52.9079,19.2179 L45.3749,19.2179 Z M77.5189,50.8079 L77.5189,34.0779 C78.6029,35.4709 80.4599,36.6579 83.8139,36.6579 C90.0569,36.6579 95.6809,31.8079 95.6809,21.7979 C95.6809,12.9749 90.7799,8.2799 85.1039,8.2799 C80.7699,8.2799 78.6029,10.3439 77.5189,11.9429 C77.5189,11.1689 77.3639,9.6209 77.2609,8.9499 L67.4579,8.9499 C67.5089,10.8599 67.5089,13.8009 67.5089,16.2259 L67.5089,50.8079 L77.5189,50.8079 Z M85.4649,22.2109 C85.4649,27.4219 84.1239,29.6919 81.1309,29.6919 C78.1899,29.6919 77.2099,27.2669 77.2099,22.5719 C77.2099,17.5159 78.1899,15.3479 81.3369,15.3479 C83.9169,15.3479 85.4649,17.2059 85.4649,22.2109 L85.4649,22.2109 Z M113.8429,8.2799 C104.1429,8.2799 99.1899,14.3679 99.1899,22.5199 C99.1899,30.3629 103.9359,36.6579 113.5339,36.6579 C122.8209,36.6579 128.0319,30.8789 128.0319,22.4169 C128.0319,14.2129 122.7689,8.2799 113.8429,8.2799 L113.8429,8.2799 Z M113.6369,15.0899 C116.3709,15.0899 117.7639,16.9999 117.7639,22.5719 C117.7639,27.5769 116.3199,29.8989 113.6879,29.8989 C110.9539,29.8989 109.4569,27.6279 109.4569,22.4689 C109.4569,16.8959 111.1079,15.0899 113.6369,15.0899 L113.6369,15.0899 Z M132.5199,35.9869 L142.5819,35.9869 L142.5819,24.8939 C142.5819,18.5469 145.1619,17.2059 150.8369,17.4639 L150.8369,8.2799 C146.1939,8.3309 143.5619,10.7559 142.5299,13.3359 C142.5299,12.1489 142.4269,9.7759 142.2719,8.9499 L132.4689,8.9499 C132.5199,11.3239 132.5199,14.1099 132.5199,16.6899 L132.5199,35.9869 Z M153.6739,15.7099 L157.4919,15.7099 L157.4919,28.1959 C157.4919,33.3039 159.2979,36.3999 165.6959,36.3999 C167.3469,36.3999 169.9789,36.2969 171.5779,35.7809 L171.5779,29.5889 C171.0109,29.6409 170.5459,29.6409 170.1329,29.6409 C168.0179,29.6409 167.5019,29.0219 167.5019,27.3189 L167.5019,15.7099 L172.2489,15.7099 L172.2489,8.9499 L167.5019,8.9499 L167.5019,1.9329 L157.5439,1.9329 L157.5439,8.9499 L153.6739,8.9499 L153.6739,15.7099 Z M201.1429,18.2379 C201.1429,11.7369 197.5309,8.3309 188.6559,8.2799 C179.0589,8.2279 176.3759,12.6649 176.0149,17.2059 L185.3019,17.2059 C185.5599,15.4519 186.1279,14.4199 188.3979,14.4199 C190.8229,14.4199 191.4419,15.6579 191.4419,17.4119 L191.4419,18.9089 L188.1399,18.9089 C179.8849,18.9089 174.7769,21.6429 174.7769,28.0409 C174.7769,32.8399 178.0789,36.6579 184.1159,36.6579 C188.5009,36.6579 190.4619,35.1619 191.7519,33.5109 C191.8039,34.1299 191.9579,35.4199 192.1649,35.9869 L201.4519,35.9869 C201.2969,35.0579 201.1429,31.0339 201.1429,27.9899 L201.1429,18.2379 Z M191.4419,24.7909 C191.4419,27.7319 190.9779,30.0539 187.5729,30.0539 C185.5599,30.0539 184.6319,28.7639 184.6319,27.2159 C184.6319,25.2029 185.7669,23.9649 189.2239,23.9649 L191.4419,23.9649 L191.4419,24.7909 Z M233.8549,16.6899 C233.8549,13.5429 233.9059,11.0139 233.9579,8.9499 L224.2059,8.9499 C224.1539,9.4149 223.9999,10.7559 223.9479,11.4269 C223.5349,10.1889 221.6259,8.2799 217.2919,8.2799 C210.5329,8.2799 205.6829,14.0589 205.6829,22.4689 C205.6829,29.6409 209.5529,35.4199 216.6729,35.4199 C220.4909,35.4199 222.5549,34.0779 223.9479,32.0139 L223.9479,33.4589 C223.9479,37.8959 223.2259,39.9599 219.7169,39.9599 C217.4469,39.9599 216.5699,38.9799 216.2089,37.5349 L206.3019,37.5349 C206.5599,40.5789 208.4689,46.4099 219.3559,46.4099 C230.7589,46.4099 233.8549,40.7859 233.8549,31.9629 L233.8549,16.6899 Z M216.0019,22.0039 C216.0019,17.0509 217.9109,15.1939 220.2329,15.1939 C223.7929,15.1939 224.2579,17.6699 224.2579,21.9009 C224.2579,25.9259 223.4839,28.4539 220.0779,28.4539 C217.5499,28.4539 216.0019,26.0809 216.0019,22.0039 L216.0019,22.0039 Z M265.9989,24.4289 C266.1019,23.7069 266.1019,23.0359 266.1019,22.1079 C266.1019,15.3999 262.9029,8.2799 252.4289,8.2799 C242.5739,8.2799 238.2909,14.5229 238.2909,22.6749 C238.2909,29.7439 242.0059,36.6579 252.2229,36.6579 C261.8199,36.6579 264.8639,31.0849 265.8439,27.4739 L255.9889,27.4739 C255.4729,28.9179 254.8019,29.8989 252.4289,29.8989 C249.4359,29.8989 248.4039,27.1639 248.4039,24.4289 L265.9989,24.4289 Z M248.5079,19.2179 C248.6619,16.5349 249.6939,14.5229 252.3769,14.5229 C255.2669,14.5229 255.9889,16.6899 256.0409,19.2179 L248.5079,19.2179 Z" id="Fill-2" fill="#FEFEFE"></path>
            </g>
        </g>
    </g>
</svg>