<svg xmlns="http://www.w3.org/2000/svg" xmlns:xlink="http://www.w3.org/1999/xlink" width="27" height="23" viewBox="0 0 27 23">
    <defs>
        <path id="a" d="M13.177 22.068H0V-.001h26.353v22.069H13.177z"/>
    </defs>
    <g fill="none" fill-rule="evenodd">
        <mask id="b" fill="#fff">
            <use xlink:href="#a"/>
        </mask>
        <path fill="#1D1C1B" d="M26.353 22.068V8.718h-2.79c.222-1.6 1.152-2.878 2.79-3.833V0c-2.332.48-4.412 1.434-6.245 2.865-1.832 1.432-3.13 3.173-3.893 5.221-.763 2.05-1.143 4.675-1.143 7.876v6.107h11.281zm-15.07 0V8.718h-2.79c.222-1.6 1.152-2.878 2.79-3.833V0a14.986 14.986 0 0 0-6.224 2.865c-1.846 1.432-3.15 3.173-3.914 5.221C.381 10.135 0 12.76 0 15.961v6.107h11.283z" mask="url(#b)"/>
    </g>
</svg>
